<?xml version="1.0" encoding="utf-8"?>
<!-- Generator: Adobe Illustrator 24.0.0, SVG Export Plug-In . SVG Version: 6.00 Build 0)  -->
<svg version="1.1" id="Layer_1" xmlns="http://www.w3.org/2000/svg" xmlns:xlink="http://www.w3.org/1999/xlink" x="0px" y="0px"
	 viewBox="0 0 500 325.7" style="enable-background:new 0 0 500 325.7;" xml:space="preserve">
<style type="text/css">
	.st0{opacity:0.4;fill:#DFF9F8;}
	.st1{fill:#9B4929;}
	.st2{fill:#84361E;}
	.st3{fill:#0097F6;}
	.st4{fill:#0085DB;}
	.st5{fill:#00ACFF;}
	.st6{fill:#47284F;}
	.st7{fill:#FFA68D;}
	.st8{fill:#FFFFFF;}
	.st9{fill:#1B294A;}
	.st10{fill:#5E67EE;}
	.st11{fill:#435277;}
	.st12{fill:#C3D2D7;}
	.st13{fill:#95A4B1;}
	.st14{fill:#FFC8C2;}
	.st15{fill:#828EF9;}
	.st16{fill:#1F3768;}
	.st17{fill:#101C33;}
	.st18{fill:#3E4E6C;}
	.st19{fill:#FFC9AC;}
	.st20{fill:#BA623A;}
	.st21{fill:#3FD3CF;}
	.st22{opacity:0.3;fill:#47284F;}
	.st23{fill:#00C5FF;}
</style>
<g id="XMLID_141_">
	<g id="XMLID_139_">
		<g id="XMLID_319_">
			<path id="XMLID_324_" class="st0" d="M498.7,277.9H2.7c-7-8.7,0.7-24.5,9.7-31.1c9-6.6,20.4-10.1,27.9-18.4
				c11.7-13.1,9.8-32.8,8.7-50.3c-1.1-17.5,1.3-38.5,16.8-46.7c14.3-7.6,32.3,0,47.8-4.6c15.3-4.5,24.5-19.5,33.9-32.4
				c31.3-43.2,79.4-73.8,131.7-84c22.5-4.4,46.6-5,67.8,3.9c21.2,8.9,38.8,28.7,40,51.6c0.9,16.2-6.2,31.7-9.7,47.5
				c-3.6,15.8-2.5,35,10.4,44.9c10.4,8,24.8,7.1,37.9,8.8c13,1.7,28,9.2,28.4,22.4c0.4,14.3-17.1,25.7-13.5,39.5
				c2.2,8.4,11.5,12.9,20.1,14.4c8.6,1.5,17.7,1.3,25.5,5.1S503.6,270.7,498.7,277.9z"/>
		</g>
		<g id="XMLID_140_">
			<g id="XMLID_156_">
				<g id="XMLID_157_">
					<g id="XMLID_164_">
						<g id="XMLID_302_">
							<g id="XMLID_311_">
								<path id="XMLID_317_" class="st1" d="M163,123.2h-11.7c-2.2,0-3.9,1.8-3.9,3.9v7.3c0,2.2,1.8,3.9,3.9,3.9h9.4v-2.9l0,0
									c2.8,0,5.6-1.1,7.6-3.1l1.4-1.4L163,123.2z"/>
								<polygon id="XMLID_316_" class="st1" points="163,123.2 169.8,130.9 198.9,124.2 194.9,113.4 								"/>
								<polygon id="XMLID_315_" class="st2" points="194.9,113.4 193.5,113.8 193,125.5 198.9,124.2 								"/>
								<path id="XMLID_314_" class="st3" d="M250.7,71.7L250.7,71.7c-3.8-3-9.4-2.5-12.6,1.2L207.9,108l-5.5,1.8l5.1,13.6l2.9-0.6
									c4.5-1,8.7-3.3,11.9-6.7l29.4-30.9C255.4,81.3,254.9,75,250.7,71.7z"/>
								<path id="XMLID_313_" class="st4" d="M207.7,123.8l-0.2-0.4l-5.1-13.6l-0.5-1.3c-0.3-0.8-1.1-1.2-1.9-0.9l-5,1.9
									c-0.8,0.3-1.2,1.1-0.9,1.9l0.4,1.1l4.7,12.7l0.6,1.6c0.3,0.8,1.1,1.2,1.9,0.9l5-1.9C207.6,125.4,208,124.6,207.7,123.8z"/>
								<path id="XMLID_312_" class="st5" d="M240,74.4c2.8-3.3,7.5-4.1,11.3-2.1c-0.2-0.2-0.4-0.4-0.6-0.6h0
									c-3.8-3-9.4-2.5-12.6,1.2L207.9,108l-5.5,1.8l0.8,2.2l6.1-2.1L240,74.4z"/>
							</g>
							<g id="XMLID_303_">
								<path id="XMLID_310_" class="st6" d="M240.2,144.6l-63,16.8c-10.9,2.9-16,15.4-10.2,25.1l36.7,61.2l20.4-9.1l-29.4-55.9
									l59.8-12.5c11.6-2.4,18.4-14.5,14.5-25.6l0,0H240.2z"/>
								<g id="XMLID_304_">
									<path id="XMLID_309_" class="st7" d="M221.5,242.8l-1.5-2.3l-11.6,5.2l2.7,5l13-3.6C223.3,245.6,222.4,244.2,221.5,242.8z"
										/>
									<path id="XMLID_308_" class="st8" d="M218.3,252.9l-1.1,2.8l1.4-1c0.6-0.4,1.3-0.6,2-0.6h6.8c-1-2.4-2.1-4.7-3.4-7l-13,3.6
										l0.8,1.4h5.9C218.2,252.1,218.5,252.5,218.3,252.9z"/>
									<path id="XMLID_307_" class="st6" d="M203.4,264.7h27.4l-0.5-1.9c-0.8-3-1.8-5.9-3-8.8h-6.8c-0.7,0-1.4,0.2-2,0.6l-1.4,1
										l1.1-2.8c0.1-0.4-0.1-0.8-0.5-0.8h-5.9l-4.4,4.1c-2,1.9-4.6,2.9-7.3,2.9h-3c-2.9,0-5.4,1.6-6.8,4l5.7,1
										C198.6,264.5,201,264.7,203.4,264.7z"/>
									<path id="XMLID_306_" class="st8" d="M203.4,264.7c-2.4,0-4.9-0.2-7.3-0.6l-5.7-1c-0.6,1-0.9,2.2-0.9,3.4l8.6,0.8
										c1.4,0.1,2.7,0.2,4.1,0.2h29.3l-0.7-2.7H203.4z"/>
									<polygon id="XMLID_305_" class="st6" points="220,240.5 208.4,245.7 209.6,247.9 222.3,244 									"/>
								</g>
							</g>
						</g>
						<g id="XMLID_228_">
							<g id="XMLID_299_">
								<path id="XMLID_301_" class="st9" d="M143,139h-3l-7.7,27.1c-6,21.2-3.6,43.9,6.7,63.3l3.7,1.4L143,139z"/>
								<path id="XMLID_300_" class="st10" d="M132.4,166.1L140,139h-2.8l-15.7,58.3c-1.4,5.3-6.2,8.9-11.6,8.9
									c-0.4,0-0.7,0.3-0.7,0.7v11.1l29.9,11.3C128.8,209.9,126.4,187.3,132.4,166.1z"/>
							</g>
							<g id="XMLID_292_">
								<circle id="XMLID_298_" class="st6" cx="107.1" cy="276.7" r="41.8"/>
								<circle id="XMLID_297_" class="st11" cx="107.1" cy="276.7" r="30.1"/>
								<circle id="XMLID_296_" class="st12" cx="107.1" cy="276.7" r="24.6"/>
								<path id="XMLID_295_" class="st13" d="M107.1,252.1c-4.6,0-9,1.3-12.7,3.5c1.7-0.4,3.5-0.7,5.3-0.7c12,0,21.7,9.7,21.7,21.7
									c0,12-9.7,21.7-21.7,21.7c-1.8,0-3.6-0.2-5.3-0.7c3.7,2.2,8,3.5,12.7,3.5c13.6,0,24.6-11,24.6-24.6
									C131.7,263.1,120.7,252.1,107.1,252.1z"/>
								<circle id="XMLID_294_" class="st13" cx="107.1" cy="276.7" r="10.8"/>
								
									<ellipse id="XMLID_293_" transform="matrix(0.7071 -0.7071 0.7071 0.7071 -164.2509 156.7637)" class="st9" cx="107.1" cy="276.7" rx="7.3" ry="7.3"/>
							</g>
							<g id="XMLID_285_">
								<circle id="XMLID_291_" class="st6" cx="321.9" cy="276.7" r="41.8"/>
								<circle id="XMLID_290_" class="st11" cx="321.9" cy="276.7" r="30.1"/>
								<circle id="XMLID_289_" class="st12" cx="321.9" cy="276.7" r="24.6"/>
								<path id="XMLID_288_" class="st13" d="M321.9,252.1c-4.6,0-9,1.3-12.7,3.5c1.7-0.4,3.5-0.7,5.3-0.7c12,0,21.7,9.7,21.7,21.7
									c0,12-9.7,21.7-21.7,21.7c-1.8,0-3.6-0.2-5.3-0.7c3.7,2.2,8,3.5,12.7,3.5c13.6,0,24.6-11,24.6-24.6
									C346.5,263.1,335.5,252.1,321.9,252.1z"/>
								<circle id="XMLID_287_" class="st13" cx="321.9" cy="276.7" r="10.8"/>
								
									<ellipse id="XMLID_286_" transform="matrix(0.7071 -0.7071 0.7071 0.7071 -101.3264 308.6769)" class="st9" cx="321.9" cy="276.7" rx="7.3" ry="7.3"/>
							</g>
							<g id="XMLID_280_">
								<g id="XMLID_282_">
									<path id="XMLID_284_" class="st8" d="M109.1,221.3c21.5,0.7,40,15.8,45.7,36.5l0.9,3.4l1,0.5l-1.9-7
										c-5.7-20.8-24.2-35.9-45.7-36.5c-0.6,0-1.1,0-1.7,0c-9.3,0-18.2,2.4-26,6.9l1.4,2.4c7.5-4,15.9-6.1,24.6-6.1
										C108,221.2,108.6,221.2,109.1,221.3z"/>
									<path id="XMLID_283_" class="st14" d="M113.1,240.2l42.7,21l-0.9-3.4c-5.7-20.8-24.2-35.9-45.7-36.5c-0.6,0-1.1,0-1.7,0
										c-8.7,0-17.1,2.1-24.6,6.1l7.7,12.8H113.1z"/>
								</g>
								<path id="XMLID_281_" class="st10" d="M158.8,264.8h-20c-9,0-17.6-3.6-23.9-9.9l0,0c-6.3-6.3-14.9-9.9-23.9-9.9H67.3
									l7.5-7.5c8.7-8.7,20.4-13.5,32.6-13.5h0c15.8,0,30.4,8,38.9,21.3L158.8,264.8z"/>
							</g>
							<path id="XMLID_279_" class="st10" d="M143,139l-7.7,27.1c-6.1,21.7-3.4,45,7.5,64.7l3.8,6.9c10.8,19.5,31.4,31.6,53.7,31.6
								h188.4l-6.7-24.5c-6.7-24.2-22.2-44.9-43.5-58.1l-12.2-7.5H221.5v4.6c0,3,1.9,5.7,4.8,6.7l0,0c11.2,3.8,19.3,13.7,20.7,25.4
								l0,0c2.2,18.3-12.1,34.5-30.5,34.5h-15.3c-14.7,0-28.4-7.5-36.2-19.9l-7.1-11.2c-7.8-12.3-10.5-27.3-7.5-41.6l8.3-38.7H143z"
								/>
							<path id="XMLID_278_" class="st6" d="M326.3,179.1H213v-13.4h90.3c6.3,0,12.3,2.5,16.7,7L326.3,179.1z"/>
							<g id="XMLID_276_">
								<path id="XMLID_277_" class="st14" d="M260.4,271.2h-50.9c-23,0-44.2-12.5-55.3-32.6l-3.8-6.9c-11.2-20.3-14-43.8-7.7-66.1
									c2-7.2,1.1-15-2.6-21.5c-0.5-0.9-0.2-2,0.7-2.5c0.9-0.5,2-0.2,2.5,0.7c4.2,7.4,5.2,16.2,2.9,24.4c-6,21.4-3.4,43.9,7.3,63.3
									l3.8,6.9c10.5,18.9,30.4,30.7,52.1,30.7h50.9c1,0,1.9,0.8,1.9,1.9C262.3,270.3,261.4,271.2,260.4,271.2z"/>
							</g>
							<path id="XMLID_275_" class="st9" d="M262.3,262h116.5l-1.8,1.8c-2.9,2.8-6.7,4.5-10.7,4.5h-91.7
								C269.7,268.3,265.1,265.9,262.3,262L262.3,262z"/>
							<g id="XMLID_254_">
								<circle id="XMLID_274_" class="st13" cx="313.1" cy="256" r="25.2"/>
								<g id="XMLID_270_">
									<path id="XMLID_271_" class="st11" d="M313.1,275.4c-10.7,0-19.4-8.7-19.4-19.4s8.7-19.4,19.4-19.4
										c10.7,0,19.4,8.7,19.4,19.4S323.8,275.4,313.1,275.4z M313.1,238.6c-9.6,0-17.3,7.8-17.3,17.3s7.8,17.3,17.3,17.3
										c9.6,0,17.3-7.8,17.3-17.3S322.7,238.6,313.1,238.6z"/>
								</g>
								<g id="XMLID_255_">
									<g id="XMLID_268_">
										<path id="XMLID_269_" class="st11" d="M325.7,257h-25.2c-0.6,0-1-0.5-1-1c0-0.6,0.5-1,1-1h25.2c0.6,0,1,0.5,1,1
											C326.8,256.5,326.3,257,325.7,257z"/>
									</g>
									<g id="XMLID_266_">
										<path id="XMLID_267_" class="st11" d="M323.6,252.9h-20.8c-0.6,0-1-0.5-1-1c0-0.6,0.5-1,1-1h20.8c0.6,0,1,0.5,1,1
											C324.6,252.4,324.1,252.9,323.6,252.9z"/>
									</g>
									<g id="XMLID_264_">
										<path id="XMLID_265_" class="st11" d="M320.7,248.8h-15c-0.6,0-1-0.5-1-1c0-0.6,0.5-1,1-1h15c0.6,0,1,0.5,1,1
											C321.7,248.3,321.2,248.8,320.7,248.8z"/>
									</g>
									<g id="XMLID_262_">
										<path id="XMLID_263_" class="st11" d="M317.2,244.6h-8.1c-0.6,0-1-0.5-1-1c0-0.6,0.5-1,1-1h8.1c0.6,0,1,0.5,1,1
											C318.2,244.2,317.8,244.6,317.2,244.6z"/>
									</g>
									<g id="XMLID_260_">
										<path id="XMLID_261_" class="st11" d="M323.6,261.1h-20.8c-0.6,0-1-0.5-1-1c0-0.6,0.5-1,1-1h20.8c0.6,0,1,0.5,1,1
											C324.6,260.7,324.1,261.1,323.6,261.1z"/>
									</g>
									<g id="XMLID_258_">
										<path id="XMLID_259_" class="st11" d="M320.7,265.2h-15c-0.6,0-1-0.5-1-1c0-0.6,0.5-1,1-1h15c0.6,0,1,0.5,1,1
											C321.7,264.8,321.2,265.2,320.7,265.2z"/>
									</g>
									<g id="XMLID_256_">
										<path id="XMLID_257_" class="st11" d="M317.2,269.4h-8.1c-0.6,0-1-0.5-1-1c0-0.6,0.5-1,1-1h8.1c0.6,0,1,0.5,1,1
											C318.2,268.9,317.8,269.4,317.2,269.4z"/>
									</g>
								</g>
							</g>
							<g id="XMLID_251_">
								<path id="XMLID_253_" class="st15" d="M340.3,201.4L340.3,201.4c-12-7.3-25.8-11.1-39.8-11.1h-4.7
									c-23.9,0-44.2,19.6-44.2,43.5c0,10.8,4,20.7,10.6,28.3h32.9H328h50.8l-4.5-15.9C369.1,227.5,356.9,211.5,340.3,201.4z"/>
								<path id="XMLID_252_" class="st10" d="M333.6,217.6L333.6,217.6c-8.8-5.3-18.9-8.2-29.1-8.2H301
									c-17.5,0-32.3,14.3-32.3,31.8c0,7.9,2.9,15.2,7.7,20.7h24.1h24.1h37.2l-3.3-11.6C354.7,236.7,345.8,225,333.6,217.6z"/>
							</g>
							<g id="XMLID_240_">
								<g id="XMLID_249_">
									<path id="XMLID_250_" class="st11" d="M334.2,255.6h-39.2c-0.6,0-1.1-0.5-1.1-1.1s0.5-1.1,1.1-1.1h39.2
										c0.6,0,1.1,0.5,1.1,1.1S334.8,255.6,334.2,255.6z"/>
								</g>
								<g id="XMLID_247_">
									<path id="XMLID_248_" class="st11" d="M333,251.2h-39.2c-0.6,0-1.1-0.5-1.1-1.1c0-0.6,0.5-1.1,1.1-1.1H333
										c0.6,0,1.1,0.5,1.1,1.1C334.1,250.7,333.6,251.2,333,251.2z"/>
								</g>
								<g id="XMLID_245_">
									<path id="XMLID_246_" class="st11" d="M331.7,246.8h-39.2c-0.6,0-1.1-0.5-1.1-1.1c0-0.6,0.5-1.1,1.1-1.1h39.2
										c0.6,0,1.1,0.5,1.1,1.1C332.9,246.3,332.4,246.8,331.7,246.8z"/>
								</g>
								<g id="XMLID_243_">
									<path id="XMLID_244_" class="st11" d="M330.5,242.4h-39.2c-0.6,0-1.1-0.5-1.1-1.1c0-0.6,0.5-1.1,1.1-1.1h39.2
										c0.6,0,1.1,0.5,1.1,1.1C331.6,241.9,331.2,242.4,330.5,242.4z"/>
								</g>
								<g id="XMLID_241_">
									<path id="XMLID_242_" class="st11" d="M329.3,237.9h-39.2c-0.6,0-1.1-0.5-1.1-1.1c0-0.6,0.5-1.1,1.1-1.1h39.2
										c0.6,0,1.1,0.5,1.1,1.1C330.4,237.4,329.9,237.9,329.3,237.9z"/>
								</g>
							</g>
							<path id="XMLID_239_" class="st9" d="M221.5,179.1h104.8l0,0c-2.3,2.3-5.5,3.6-8.7,3.6h-86.4
								C227.6,182.8,224.2,181.5,221.5,179.1L221.5,179.1z"/>
							<path id="XMLID_238_" class="st9" d="M158.6,139h-21.4h-9.9v-20h6.8c5.8,0,11.6,1.3,16.8,3.7l5,2.3c3.2,1.5,4.9,5.1,4,8.5
								L158.6,139z"/>
							<g id="XMLID_235_">
								<rect id="XMLID_237_" x="124.1" y="119" class="st14" width="3.3" height="20"/>
								<rect id="XMLID_236_" x="122.4" y="119" class="st8" width="1.7" height="20"/>
							</g>
							<g id="XMLID_229_">
								<g id="XMLID_232_">
									<path id="XMLID_234_" class="st12" d="M375.6,176.3c0.4-0.4,0.4-1.1,0-1.6c-0.4-0.4-1.1-0.4-1.6,0l-9.3,9.3h3.2
										L375.6,176.3z"/>
									<path id="XMLID_233_" class="st8" d="M364.7,184l-15.1,15.1c-0.4,0.4-0.4,1.1,0,1.6c0.2,0.2,0.5,0.3,0.8,0.3
										c0.3,0,0.6-0.1,0.8-0.3l16.7-16.7H364.7z"/>
								</g>
								<g id="XMLID_230_">
									<path id="XMLID_231_" class="st8" d="M319,188.3h-62.9c-1,0-1.9-0.8-1.9-1.9c0-1,0.8-1.9,1.9-1.9H319
										c4.5,0,8.7-1.7,11.9-4.9c3.9-3.9,9-6,14.5-6h61.1c1,0,1.9,0.8,1.9,1.9s-0.8,1.9-1.9,1.9h-61.1c-4.5,0-8.7,1.7-11.9,4.9
										C329.7,186.2,324.5,188.3,319,188.3z"/>
								</g>
							</g>
						</g>
						<polygon id="XMLID_227_" class="st9" points="143,139 158.6,139 158.2,140.7 142.5,140.7 						"/>
						<g id="XMLID_218_">
							<rect id="XMLID_226_" x="323.2" y="92.3" class="st9" width="109.9" height="81.3"/>
							<rect id="XMLID_225_" x="320" y="79.1" class="st16" width="116.2" height="13.3"/>
							<rect id="XMLID_224_" x="323.2" y="92.3" class="st17" width="109.9" height="6.4"/>
							<g id="XMLID_219_">
								<polygon id="XMLID_223_" class="st16" points="336.9,108.5 336.4,110.6 378.1,110.6 393.1,108.5 								"/>
								<polygon id="XMLID_222_" class="st16" points="337.6,105.2 337.1,107.3 410.3,107.3 425.3,105.2 								"/>
								<polygon id="XMLID_221_" class="st16" points="336.9,153.5 336.4,155.6 378.1,155.6 393.1,153.5 								"/>
								<polygon id="XMLID_220_" class="st16" points="337.6,150.2 337.1,152.3 410.3,152.3 425.3,150.2 								"/>
							</g>
						</g>
						<g id="XMLID_165_">
							<g id="XMLID_210_">
								<path id="XMLID_217_" class="st18" d="M240.2,144.6l-52.5,15.7c-11.6,3.5-16.9,17-10.6,27.4l36,60l20.4-9.1l-29.4-55.9
									l59.8-12.5c11.6-2.4,18.4-14.5,14.5-25.6l0,0H240.2z"/>
								<g id="XMLID_211_">
									<path id="XMLID_216_" class="st19" d="M230.8,242.8l-1.5-2.3l-11.6,5.2l2.7,5l13-3.6C232.6,245.6,231.7,244.2,230.8,242.8z
										"/>
									<path id="XMLID_215_" class="st8" d="M227.6,252.9l-1.1,2.8l1.4-1c0.6-0.4,1.3-0.6,2-0.6h6.8c-1-2.4-2.1-4.7-3.4-7l-13,3.6
										l0.8,1.4h5.9C227.5,252.1,227.8,252.5,227.6,252.9z"/>
									<path id="XMLID_214_" class="st6" d="M212.7,264.7h27.4l-0.5-1.9c-0.8-3-1.8-5.9-3-8.8h-6.8c-0.7,0-1.4,0.2-2,0.6l-1.4,1
										l1.1-2.8c0.1-0.4-0.1-0.8-0.5-0.8h-5.9l-4.4,4.1c-2,1.9-4.6,2.9-7.3,2.9h-3c-2.9,0-5.4,1.6-6.8,4l5.7,1
										C207.9,264.5,210.3,264.7,212.7,264.7z"/>
									<path id="XMLID_213_" class="st8" d="M212.7,264.7c-2.4,0-4.9-0.2-7.3-0.6l-5.7-1c-0.6,1-0.9,2.2-0.9,3.4l8.6,0.8
										c1.4,0.1,2.7,0.2,4.1,0.2h29.3l-0.7-2.7H212.7z"/>
									<polygon id="XMLID_212_" class="st6" points="229.3,240.5 217.7,245.7 218.9,247.9 231.6,244 									"/>
								</g>
							</g>
							<g id="XMLID_186_">
								<path id="XMLID_209_" class="st20" d="M228.5,51.7l-1.6-9c-0.5-3-3.2-5.2-6.2-5.2h-9.1l0.8,4.3c0.6,3.1,0.5,6.3-0.2,9.4
									l-0.4,1.8c-0.2,0.7,0.4,1.4,1.2,1.4h1.8c2.3,8.5,12.6,12.1,19.8,6.6l11.2-8.6l-6,4.2C235.5,59.5,229.5,57,228.5,51.7z"/>
								<path id="XMLID_208_" class="st1" d="M211.1,34.3l0.6,3.1l0,0h9.1c3.1,0,5.7,2.2,6.2,5.2l1.6,9c0.9,5.3,7,7.8,11.4,4.7
									l6-4.2l0,0l0,0V34.3H211.1z"/>
								<g id="XMLID_205_">
									<polygon id="XMLID_207_" class="st6" points="245.9,52.2 234.6,60.9 236.1,65.2 245.9,52.2 									"/>
									<polygon id="XMLID_206_" class="st20" points="253.7,64.2 245.9,52.2 236.1,65.2 238.7,72.5 									"/>
								</g>
								<path id="XMLID_204_" class="st6" d="M218.4,44.6c0.2,1-0.1,1.9-0.7,2c-0.6,0.1-1.1-0.7-1.3-1.7c-0.2-1,0.1-1.9,0.7-2
									C217.6,42.8,218.2,43.5,218.4,44.6z"/>
								<g id="XMLID_202_">
									<path id="XMLID_203_" class="st6" d="M215.7,40.9c0.9-0.5,2-0.5,2.9,0.1c0.9,0.6,1.7-0.8,0.8-1.4c-1.4-0.9-3.1-0.9-4.5-0.1
										C214,40,214.8,41.4,215.7,40.9L215.7,40.9z"/>
								</g>
								<g id="XMLID_197_">
									<g id="XMLID_199_">
										<path id="XMLID_201_" class="st8" d="M218,50.9l1.8,0.6c2.7,0.9,5.5,1,8.2,0.3l4.5-1.3l-1.1-2.1l-3.5,1
											c-2.7,0.8-5.6,0.7-8.2-0.3l-1.8-0.6c-1.6-0.6-3.2-1-4.9-1.3l-0.6-0.1l-0.6,2.4l1.2,0.2C214.7,49.9,216.3,50.3,218,50.9z"
											/>
										<path id="XMLID_200_" class="st21" d="M232.5,50.5l-4.5,1.3c-2.7,0.8-5.6,0.7-8.2-0.3l-1.8-0.6c-1.6-0.6-3.2-1-4.9-1.3
											l-1.2-0.2l-0.2,0.8c-0.3,1.3-0.3,2.8,0.2,4.1l1,2.8c1.8,4.9,6.3,8.3,11.5,8.6h0c3.3,0.2,6.5-0.9,9-2.9l3.8-3.1L232.5,50.5
											z"/>
									</g>
									<path id="XMLID_198_" class="st22" d="M228.1,49.3l0.4,2.4c0.7,3.9,4.1,6.2,7.6,6l-4.7-9.4L228.1,49.3z"/>
								</g>
								<g id="XMLID_187_">
									<path id="XMLID_196_" class="st18" d="M234.6,54.2l-3.4,9.8c-0.1,0.3,0.2,0.7,0.5,0.6l0,0c2.6-0.3,4.8-1.8,6.1-4l4.4-7.5
										L234.6,54.2z"/>
									<g id="XMLID_188_">
										<path id="XMLID_195_" class="st9" d="M231.3,39.3l1.9,10.7c0.3,1.8,2.2,2.9,4,2.3l18.6-6.9V32.1
											c0-13.7-11.1-24.8-24.8-24.8l0,0c-13.4,0-24.4,10.7-24.8,24h15.6C226.5,31.3,230.5,34.7,231.3,39.3z"/>
										<g id="XMLID_190_">
											<g id="XMLID_193_">
												<path id="XMLID_194_" class="st16" d="M246.4,27.4c-1.2,0-2.4-0.7-3-1.8C241,20.9,236.2,18,231,18
													c-1.8,0-3.3-1.5-3.3-3.3c0-1.8,1.5-3.3,3.3-3.3c7.7,0,14.8,4.3,18.4,11.1c0.9,1.6,0.2,3.7-1.4,4.5
													C247.4,27.3,246.9,27.4,246.4,27.4z"/>
											</g>
											<g id="XMLID_191_">
												<path id="XMLID_192_" class="st16" d="M220.7,21.4c-1,0-2-0.5-2.7-1.4c-1.1-1.5-0.8-3.6,0.7-4.7l0.2-0.1
													c1.5-1.1,3.6-0.7,4.7,0.8c1.1,1.5,0.7,3.6-0.8,4.7l-0.1,0.1C222.1,21.1,221.4,21.4,220.7,21.4z"/>
											</g>
										</g>
										<path id="XMLID_189_" class="st17" d="M237.1,52.3c-1.7,0.6-3.6-0.4-4-2.3l-1.9-10.7c-0.8-4.6-4.8-8-9.5-8h-15.6
											c0,0.2,0,0.5,0,0.7v2.3H221c3.6,0,6.7,2.6,7.3,6.1l1.9,10.6c0.7,3.8,4.7,6,8.2,4.4l15.6-6.8c1.1-0.5,1.8-1.5,1.8-2.7v-0.6
											L237.1,52.3z"/>
									</g>
								</g>
							</g>
							<g id="XMLID_177_">
								<g id="XMLID_183_">
									<path id="XMLID_185_" class="st5" d="M235.6,138.9l4.6-19.9l-6.5-35.9c-0.8-4.3,1.3-8.6,5.1-10.7l15-8.3
										c2-1.1,4.4-0.8,6.1,0.6v0c12.4,10.6,20.1,25.7,21.6,41.9l2.8,31.5c0.3,3.4-2.4,6.4-5.9,6.4l0,0h-38.3l0,0
										C237.2,144.6,235,141.8,235.6,138.9z"/>
									<path id="XMLID_184_" class="st3" d="M258.3,79.1l0.1,0.5c1.6,6.1,0.4,12.6-3.2,17.7L240.2,119l-3.1-16.8L258.3,79.1z"/>
								</g>
								<g id="XMLID_178_">
									<g id="XMLID_180_">
										<polygon id="XMLID_182_" class="st5" points="237.3,68.4 233.1,70.6 237.3,75 238.7,72.5 										"/>
										<polygon id="XMLID_181_" class="st3" points="233.1,70.6 232.2,78.2 236.5,74.1 										"/>
									</g>
									<polygon id="XMLID_179_" class="st23" points="256.2,63.5 251.8,59.6 236.1,68.2 238.3,77.2 									"/>
								</g>
							</g>
							<g id="XMLID_166_">
								<g id="XMLID_170_">
									<path id="XMLID_176_" class="st20" d="M167.8,127h-11.7c-2.2,0-3.9,1.8-3.9,3.9v7.3c0,2.2,1.8,3.9,3.9,3.9h9.4v-2.9l0,0
										c2.8,0,5.6-1.1,7.6-3.1l1.4-1.4L167.8,127z"/>
									<polygon id="XMLID_175_" class="st20" points="167.8,127 174.6,134.7 203.8,127.9 199.7,117.1 									"/>
									<polygon id="XMLID_174_" class="st1" points="199.7,117.1 198.3,117.5 197.8,129.3 203.8,127.9 									"/>
									<path id="XMLID_173_" class="st5" d="M255.5,75.4L255.5,75.4c-3.8-3-9.4-2.5-12.6,1.2l-30.2,35.1l-5.5,1.8l5.1,13.6
										l2.9-0.6c4.5-1,8.7-3.3,11.9-6.7l29.4-30.9C260.2,85,259.8,78.7,255.5,75.4z"/>
									<path id="XMLID_172_" class="st3" d="M212.5,127.5l-0.2-0.4l-5.1-13.6l-0.5-1.3c-0.3-0.8-1.1-1.2-1.9-0.9l-5,1.9
										c-0.8,0.3-1.2,1.1-0.9,1.9l0.4,1.1l4.7,12.7l0.6,1.6c0.3,0.8,1.1,1.2,1.9,0.9l5-1.9C212.4,129.2,212.8,128.3,212.5,127.5z"
										/>
									<path id="XMLID_171_" class="st23" d="M244.9,78.1c2.8-3.3,7.5-4.1,11.3-2.1c-0.2-0.2-0.4-0.4-0.6-0.6l0,0
										c-3.8-3-9.4-2.5-12.6,1.2l-30.2,35.1l-5.5,1.8l0.8,2.2l6.1-2.1L244.9,78.1z"/>
								</g>
								<g id="XMLID_167_">
									<path id="XMLID_169_" class="st6" d="M169.4,139.2c0.9-1.6,2.9-2.2,4.5-1.3l0,0c-0.1,0-0.1-0.1-0.2-0.1l-7.5-4.1
										c-1.6-0.9-3.7-0.3-4.5,1.3c-0.9,1.6-0.3,3.7,1.3,4.5l7.5,4.1C169.1,142.7,168.6,140.8,169.4,139.2z"/>
									<path id="XMLID_168_" class="st11" d="M172.2,144c1.2,0,2.3-0.6,2.9-1.7c0.8-1.5,0.3-3.5-1.1-4.4l0,0
										c-1.6-0.9-3.7-0.3-4.5,1.3c-0.8,1.5-0.3,3.5,1.1,4.4l0,0C171.1,143.9,171.7,144,172.2,144z"/>
								</g>
							</g>
						</g>
					</g>
				</g>
			</g>
		</g>
	</g>
	<g id="XMLID_325_">
		<g id="XMLID_346_">
			<g id="XMLID_359_">
				<path id="XMLID_366_" class="st8" d="M417.4,136.5c-0.3,0-2.5-0.1-3.9,0c-0.1,0-0.1,0-0.2,0c0,0.4,0,0.7,0,1c0,0.4,0,0.7,0,1.1
					c0,0.3,0,0.7,0,1c0,0.4,0,0.7,0,1.1c0,0.3,0,0.7,0,1.1c-0.1,0-0.1,0-0.2,0c0,0-0.1,0-0.1,0c-1.7,0-3.5,0-5.2,0
					c-0.1,0-0.2,0-0.3,0c0-0.1-0.1-0.1-0.1-0.2c-0.2-0.6-0.3-1.3-0.5-1.9c0-0.1-0.1-0.2-0.1-0.3c-0.1,0-0.1,0-0.2,0
					c-1.3,0-2.6,0-3.9,0c0,0-0.1,0-0.1,0c0,0.1-0.1,0.1-0.1,0.2c-0.2,0.7-0.4,1.4-0.6,2c0,0.1,0,0.1-0.1,0.2c-0.1,0-0.2,0-0.2,0
					c-1.1,0-2.2,0-3.4,0c0,0-0.1,0-0.1,0c-0.1,0-0.1,0-0.1-0.1c-0.3,0-0.5,0.1-0.8,0.1c-1.2,0.2-2.3,0.2-3.5,0.1
					c-0.7-0.1-1.3-0.2-1.9-0.5c-1.2-0.5-2.2-1.4-2.7-2.6c0-0.1-0.1-0.2-0.1-0.3c0,0.1-0.1,0.1-0.1,0.1c-0.2,0.4-0.4,0.7-0.6,1.1
					c-0.7,1-1.6,1.6-2.7,1.9c-0.9,0.3-1.9,0.4-2.8,0.3c-0.6,0-1.3-0.1-1.9-0.3c-1.6-0.5-2.7-1.4-3.4-2.9c0,0,0-0.1-0.1-0.1
					c0,0,0,0,0-0.1c0,0.1-0.1,0.2-0.1,0.2c-0.2,0.4-0.4,0.8-0.7,1.2c-0.7,0.8-1.5,1.4-2.6,1.7c-0.9,0.3-1.9,0.3-2.8,0.3
					c-0.7,0-1.3-0.1-2-0.3c-0.1,0-0.3-0.1-0.4-0.1c0-0.1,0-0.1,0-0.1c0.1-0.1,0.3-0.2,0.4-0.4c0.6-0.5,1.2-1.1,1.8-1.6
					c0.1-0.1,0.2-0.1,0.3-0.2c0.1-0.1,0.3-0.2,0.5-0.2c0.2,0,0.4,0,0.7-0.1c0.5-0.1,0.9-0.4,1.2-0.9c0.2-0.3,0.3-0.5,0.4-0.8
					c0-0.2,0.1-0.3,0.3-0.4c0.5-0.3,0.9-0.5,1.5-0.7c0.6-0.1,1.2-0.3,1.7-0.5c1-0.3,1.9-0.7,2.9-1.1c0.1,0,0.1-0.1,0.2-0.1
					c0.1,0.1,0,0.1,0,0.2c0,0.4,0,0.8,0,1.2c0,0.5,0.1,0.9,0.2,1.3c0.1,0.2,0.2,0.4,0.3,0.6c0.4,0.7,1,1.1,1.7,1.2c0.3,0,0.7,0,1,0
					c0.6-0.1,1.1-0.5,1.5-1c0.2-0.3,0.3-0.7,0.4-1.1c0.1-0.6,0.2-1.2,0.1-1.9c0-0.5-0.1-1-0.2-1.6c-0.1-0.3-0.2-0.5-0.3-0.8
					c-0.2-0.4-0.5-0.7-1-1c0,0-0.1-0.1-0.2-0.1c0,0,0.1-0.1,0.1-0.1c0.4-0.4,0.8-0.8,1.2-1.2c0.3-0.2,0.5-0.5,0.8-0.7
					c0.1-0.1,0.3-0.2,0.4-0.3c0.4,0.2,1,0.6,1.4,1.1c0.4,0.5,0.7,1,0.9,1.6c0-0.1,0.1-0.1,0.1-0.1c0.2-0.4,0.4-0.7,0.6-1
					c0.8-1,1.7-1.6,2.9-2c0.7-0.2,1.3-0.3,2-0.3c0.7,0,1.3,0,2,0.1c0.9,0.1,1.8,0.3,2.6,0.7c0.1,0,0.1,0.1,0.2,0.1
					c-0.4,0.9-0.7,1.8-1.1,2.7c-0.1,0-0.1,0-0.2-0.1c-1-0.4-2-0.6-3-0.6c-0.4,0-0.8,0.1-1.2,0.2c-0.6,0.2-1.1,0.7-1.4,1.2
					c-0.3,0.5-0.4,1-0.5,1.5c-0.1,0.7-0.1,1.4,0,2.2c0.1,0.4,0.2,0.8,0.4,1.2c0.4,0.7,1.1,1.2,1.9,1.3c0.6,0.1,1.3,0,1.9-0.1
					c0,0,0.1,0,0.1,0c0-0.2,0-0.3,0-0.5c0-0.2,0-0.3,0-0.5c0-0.2,0-0.3,0-0.5c0-0.2,0-0.3,0-0.5c-0.1-0.1-0.2-0.1-0.3-0.1
					c-0.6,0-1.2,0-1.7,0c-0.1,0-0.2,0-0.3,0c0-0.1,0-0.1,0-0.1c0-0.8,0-1.6,0-2.5c0,0,0-0.1,0-0.1c0.1,0,0.1,0,0.2,0
					c0.4,0,0.8,0,1.2,0c1.3,0,2.6,0,3.9,0c0.1,0,0.2,0,0.3,0c0.1,0.1,0.1,0.2,0.1,0.3c0,0.5,0,1.1,0,1.6c0,0.1,0,0.2,0,0.2
					c0.1,0,0.1-0.1,0.1-0.1c0,0,0-0.1,0-0.1c0.3-1,0.6-2,1-3c0.5-1.4,0.9-2.8,1.4-4.2c0-0.1,0.1-0.2,0.1-0.3c0.2,0,3,0,3.5,0
					c0,0,0,0,0,0c0.2,0.2,0.3,0.4,0.4,0.7c0,0.1,0.1,0.2,0.1,0.3c0.1,0.2,0.2,0.3,0.4,0.3c0.1,0,0.3,0,0.4,0.1c0.1,0,0.2,0,0.3,0
					c0,0.1,0.1,0.2,0.1,0.3c0.7,2.1,1.4,4.1,2,6.2c0,0.1,0,0.2,0.1,0.3c0-0.1,0-0.2,0-0.3c0-2.1,0-4.2,0-6.4c0-0.1,0-0.2,0-0.2
					c0-0.1,0-0.1,0.1-0.2c0.1,0,0.1,0,0.1,0.1c0.1,0.1,0.2,0.2,0.3,0.3c0.1,0.1,0.2,0.2,0.3,0.2c0.2,0.2,0.5,0.2,0.8,0.2
					c0.1,0,0.2,0,0.3-0.1c0.2-0.1,0.3-0.1,0.5-0.1c0.2,0,0.4-0.1,0.5-0.2c0.1-0.1,0.3-0.1,0.4-0.2c0,0,0.1,0,0.2,0
					c0,0.3,0,0.6,0,0.8c0,0.3,0,0.6,0,0.8c0,0.3,0,0.6,0,0.8c0,0.3,0,0.6,0,0.8c0.1,0.1,0.2,0.1,0.3,0.1c0.9,0,1.8,0,2.6,0
					c0.3,0,0.6,0,0.9,0c0.1,0,0.1,0,0.2,0c0-0.2,0-0.4,0-0.6c0-0.2,0-0.4,0-0.6c0-0.2,0-0.4,0-0.6s0-0.4,0-0.6c0-0.2,0-0.4,0-0.6
					c0-0.2,0-0.4,0-0.6c0-0.2,0-0.4,0-0.6c0-0.2,0-0.4,0-0.6c0.1-0.1,0.2-0.1,0.3-0.1c1,0,1.9,0,2.9,0c0.1,0,0.2,0,0.3,0
					c0,0.1,0,0.1,0,0.2c0,0.1,0,0.1,0,0.2c0,4.1,0,8.2,0,12.3c0,0.1,0,0.2,0,0.3c-0.1,0.1-0.2,0-0.3,0c-0.8,0-1.6,0-2.3,0
					c-0.2,0-0.4,0-0.6,0c-0.1,0-0.1,0-0.2,0c-0.1-0.1,0-0.2,0-0.3c0-1.5,0-3.1,0-4.6C417.4,136.7,417.4,136.6,417.4,136.5z
					 M406.1,136.4c-0.2-0.6-0.3-1.2-0.5-1.8c-0.2-0.6-0.3-1.2-0.5-1.8c-0.2-0.6-0.3-1.2-0.4-1.9c0,0.1-0.1,0.2-0.1,0.2
					c-0.1,0.6-0.3,1.3-0.4,1.9c-0.3,1-0.5,2-0.8,3c0,0.1-0.1,0.2-0.1,0.3C403.6,136.5,405.7,136.5,406.1,136.4z"/>
				<path id="XMLID_365_" class="st8" d="M357.6,138.2c0.1-0.7,0.1-1.3,0.2-2c-0.4,0-0.7,0-1.1,0c-0.3,0-0.7,0-1,0
					c0-0.2,0-0.2,0-0.4c0.2,0,0.5,0,0.7,0c0.2,0,0.4,0,0.7,0c0.2,0,0.5,0,0.7,0c0.1-0.4,0.1-0.7,0.1-1.1c0-0.3,0.1-0.7,0.1-1
					c-0.1-0.1-0.2-0.1-0.2-0.1c-0.5,0-1.1,0-1.6,0.1c-0.1,0-0.2,0-0.2,0c0-0.2,0-0.5,0.1-0.8c0.1,0,0.1,0,0.2,0c0.5,0,1,0,1.5,0
					c0.1,0,0.2,0,0.3,0c0.1-0.3,0.1-0.7,0.1-1c0-0.3,0.1-0.6,0.1-1c-0.4,0-0.7,0-1,0c-0.3,0-0.7,0.1-1,0c0,0,0,0,0,0c0,0,0,0,0,0
					c0.1-0.7,0.1-1.3,0.2-2c0-0.1,0-0.1,0-0.2c0.1,0,0.1,0,0.2,0c1.1,0,2.1,0,3.2,0c0.1,0,0.1,0,0.2,0c0.1,0.1,0,0.2,0,0.3
					c0,1.1,0,2.3,0,3.4c0,0.5,0,1,0,1.5c0,0.1,0,0.2,0,0.3c1.3-1.9,2.5-3.7,3.8-5.5c0,0,0,0,0.1,0c0,0,0,0,0,0c1.2,0,2.4,0,3.5,0
					c0.1,0,0.1,0,0.2,0c0,0,0,0,0,0c0,0,0,0,0,0c0,0,0,0,0,0c0,0,0,0,0,0c0,0,0,0,0,0c0,0,0,0,0,0c0,0,0,0,0,0
					c-1.3,1.9-2.6,3.7-3.9,5.6c0,0,0,0,0,0c0,0,0,0,0,0s0,0,0,0c0,0.1,0.1,0.2,0.1,0.3c0.6,1,1.1,2,1.7,3c0,0.1,0.1,0.2,0.1,0.3
					c-0.2,0.3-0.4,0.5-0.6,0.7c-0.2,0.2-0.4,0.2-0.6,0.3c-0.2,0.1-0.4,0.1-0.6,0.2c-0.4,0.1-0.7,0.3-1,0.5c0,0,0,0-0.1,0
					c-0.1-0.1-0.1-0.1-0.1-0.2c-0.4-0.8-0.9-1.7-1.3-2.5c0-0.1-0.1-0.2-0.1-0.2c0,0-0.1,0-0.1,0c-0.3,0.2-0.6,0.4-1,0.6
					c0,0.3,0,0.7,0,1c0,0.3,0,0.7,0,1c0,0.3,0,0.7,0,1c0,0.3,0,0.7,0,1c0,0.3,0,0.7,0,1c0,0.3,0,0.7,0,1c-0.1,0-0.1,0-0.2,0
					c-1.5,0-3,0-4.5,0c-0.1,0-0.1,0-0.2,0c0-0.1,0-0.1,0-0.1c0.1-0.9,0.2-1.9,0.2-2.8c0,0,0-0.1,0-0.1c0.7,0,1.4,0.1,2.1,0
					c0.1-0.2,0.1-0.4,0.1-0.6c0-0.2,0-0.4,0.1-0.6c0-0.2,0.1-0.4,0-0.6c-0.1,0-0.3,0-0.4,0c-0.5,0-1,0.1-1.5,0.1c-0.1,0-0.1,0-0.2,0
					c0,0,0-0.1,0-0.1c0-0.1,0-0.3,0-0.4c0.1-0.1,0.2,0,0.3,0c0.5,0,1,0,1.6,0C357.5,138.2,357.5,138.2,357.6,138.2z"/>
				<path id="XMLID_364_" class="st8" d="M365.5,138c0-0.2-0.1-0.3-0.1-0.4c-0.1-0.6-0.2-1.2-0.2-1.8c0-0.6,0-1.2,0.1-1.8
					c0.1-0.7,0.2-1.4,0.5-2c0.7-1.5,1.8-2.5,3.4-3c0.9-0.3,1.9-0.4,2.9-0.3c0.3,0,0.6,0.1,1,0.1c0.1,0,0.2,0,0.3,0.1
					c0,0,0,0.1,0,0.1c-0.5,0.9-1.1,1.8-1.8,2.5c-0.1,0.1-0.2,0.2-0.4,0.2c-0.2,0-0.4,0.1-0.6,0.2c-0.5,0.2-0.8,0.6-1.1,1.1
					c-0.1,0.1-0.2,0.2-0.3,0.3c-0.4,0.3-0.7,0.6-0.9,1c-0.3,0.4-0.5,0.8-0.8,1.3c-0.2,0.3-0.3,0.5-0.5,0.8c-0.2,0.2-0.3,0.5-0.5,0.7
					c-0.2,0.4-0.5,0.7-0.7,1.1C365.6,137.9,365.5,137.9,365.5,138z"/>
				<path id="XMLID_363_" class="st8" d="M335.2,135c0,0,0.1,0,0.1,0c1.1,0,2.1-0.1,3.2-0.1c1,0,2.1-0.1,3.1-0.1
					c0.6,0,1.2,0,1.8-0.1c0.7,0,1.3-0.1,2-0.1c0.5,0,1,0,1.4-0.1c1.1,0,2.2-0.1,3.2-0.1c1.1,0,2.1-0.1,3.2-0.1c0.6,0,1.2,0,1.8-0.1
					c0.7,0,1.3-0.1,2-0.1c0.2,0,0.3,0,0.5,0c0,0.5-0.1,1-0.1,1.4c0,0,0,0,0,0c0,0-0.1,0-0.1,0c-7.3-0.2-14.6-0.3-21.9-0.5
					C335.4,135,335.3,135,335.2,135C335.2,135,335.2,135,335.2,135z"/>
				<path id="XMLID_362_" class="st8" d="M357.5,136.5c0,0.5-0.1,0.9-0.1,1.3c0,0-0.1,0-0.1,0c-6.5-0.1-12.9-0.3-19.4-0.4
					c0.3,0,0.6,0,0.8-0.1c1,0,2-0.1,3-0.1c1,0,2-0.1,3-0.1c0.5,0,0.9,0,1.4-0.1c1,0,2-0.1,3.1-0.1c1,0,2-0.1,3-0.1
					c0.6,0,1.2,0,1.7-0.1c0.6,0,1.2-0.1,1.9-0.1c0.5,0,1,0,1.5-0.1C357.3,136.5,357.4,136.5,357.5,136.5z"/>
				<path id="XMLID_361_" class="st8" d="M340.6,132.2c0.2,0,0.3,0,0.5,0c1.3-0.1,2.7-0.1,4-0.2c1.1-0.1,2.3-0.1,3.4-0.2
					c1.1-0.1,2.2-0.1,3.4-0.2c1.3-0.1,2.6-0.1,3.9-0.2c0.6,0,1.3-0.1,1.9-0.1c0.1,0,0.1,0,0.2,0c0,0.4-0.1,0.8-0.1,1.3
					c0,0,0,0-0.1,0C352,132.5,346.3,132.3,340.6,132.2C340.7,132.2,340.6,132.2,340.6,132.2z"/>
				<path id="XMLID_360_" class="st8" d="M357.3,139c0,0.4-0.1,0.8-0.1,1.2c-0.1,0.1-0.2,0-0.3,0c-0.7,0-1.4,0-2.1-0.1
					c-0.8,0-1.6-0.1-2.3-0.1c-0.9,0-1.7,0-2.6-0.1c-1.5,0-3-0.1-4.5-0.1c-0.3,0-0.7,0-1.1,0C344.6,139.8,356.9,139,357.3,139z"/>
			</g>
			<g id="XMLID_347_">
				<path id="XMLID_356_" class="st8" d="M396.2,143.5c0,0.2,0,0.4-0.1,0.5c-0.1,0.3-0.3,0.5-0.7,0.6c-0.2,0.1-0.5,0.1-0.7,0
					c-0.3-0.1-0.5-0.3-0.6-0.6c-0.1-0.4-0.1-0.8,0-1.1c0.1-0.3,0.3-0.5,0.6-0.6c0.2-0.1,0.5-0.1,0.7,0c0.3,0.1,0.6,0.3,0.7,0.6
					C396.1,143.2,396.2,143.4,396.2,143.5z M395.7,143.6c0-0.1,0-0.2,0-0.3c0-0.1,0-0.1,0-0.2c-0.1-0.2-0.3-0.4-0.5-0.4
					c-0.3,0-0.4,0.1-0.5,0.3c-0.1,0.3-0.1,0.6,0,0.9c0.1,0.2,0.3,0.3,0.5,0.3c0.2,0,0.4-0.1,0.5-0.3
					C395.6,143.8,395.7,143.7,395.7,143.6z"/>
				<path id="XMLID_355_" class="st8" d="M399.8,143.8c-0.1,0-0.3,0-0.4,0c-0.1-0.1,0-0.2,0-0.4c0.2-0.1,0.6-0.1,0.9,0
					c0,0.2,0.1,0.9,0,1.2c-0.3,0.1-0.7,0.2-1,0.1c-0.5-0.1-0.7-0.4-0.8-0.8c0-0.2-0.1-0.4,0-0.6c0.1-0.5,0.3-0.8,0.8-0.9
					c0.4-0.1,0.7-0.1,1.1,0.1c0,0.1-0.1,0.2-0.1,0.4c-0.1,0-0.2,0-0.2-0.1c-0.6-0.1-1,0.2-1,0.7c0,0.1,0,0.2,0,0.4
					c0.1,0.3,0.2,0.4,0.5,0.4c0.1,0,0.2,0,0.3,0C399.8,144.1,399.8,144,399.8,143.8z"/>
				<path id="XMLID_354_" class="st8" d="M406.9,142.5c0,0.1-0.1,0.2-0.2,0.3c-0.1,0-0.2-0.1-0.3-0.1c-0.1,0-0.2,0-0.3,0
					c-0.1,0-0.2,0.1-0.2,0.2c0,0.1,0,0.2,0.1,0.2c0.1,0.1,0.2,0.1,0.3,0.2c0.1,0.1,0.3,0.1,0.4,0.2c0.1,0.1,0.2,0.3,0.2,0.4
					c0,0.3-0.1,0.6-0.5,0.7c-0.3,0.1-0.7,0.1-1-0.1c0-0.1,0-0.3,0-0.4c0.1,0,0.1,0,0.2,0.1c0.1,0,0.3,0.1,0.4,0.1c0.1,0,0.2,0,0.3,0
					c0.1,0,0.2-0.2,0.1-0.3c0,0-0.1-0.1-0.2-0.1c-0.1-0.1-0.2-0.1-0.3-0.1c-0.1,0-0.2-0.1-0.2-0.1c-0.2-0.2-0.3-0.5-0.2-0.7
					c0.1-0.3,0.3-0.4,0.6-0.4C406.3,142.3,406.6,142.4,406.9,142.5z"/>
				<path id="XMLID_353_" class="st8" d="M419.5,144.6c0-0.1,0-0.3,0-0.4c0.1,0,0.1,0,0.2,0c0.1,0,0.3,0.1,0.4,0.1
					c0.1,0,0.2,0,0.3,0c0.2,0,0.2-0.2,0.1-0.4c-0.1-0.1-0.1-0.1-0.2-0.2c-0.1-0.1-0.3-0.1-0.4-0.2c-0.2-0.1-0.3-0.3-0.3-0.5
					c0-0.4,0.2-0.6,0.5-0.7c0.3,0,0.6,0,0.9,0.1c0,0.1-0.1,0.2-0.1,0.3c-0.1,0.1-0.2,0-0.2,0c-0.1,0-0.2,0-0.4,0
					c-0.1,0-0.2,0.1-0.2,0.2c0,0.1,0,0.2,0.1,0.2c0.1,0.1,0.2,0.1,0.2,0.1c0.1,0.1,0.3,0.1,0.4,0.2c0.2,0.2,0.3,0.4,0.3,0.6
					c0,0.3-0.2,0.4-0.5,0.5c-0.3,0.1-0.6,0.1-0.9,0C419.6,144.6,419.6,144.6,419.5,144.6z"/>
				<path id="XMLID_352_" class="st8" d="M417.3,144.2c0,0.1,0,0.3,0,0.4c-0.2,0.1-0.4,0.1-0.6,0.1c-0.2,0-0.4,0-0.5-0.1
					c-0.2-0.1-0.4-0.3-0.4-0.5c-0.1-0.4-0.1-0.7,0-1.1c0.1-0.4,0.5-0.7,0.9-0.7c0.3,0,0.5,0,0.7,0.1c0,0.1-0.1,0.2-0.1,0.4
					c-0.1,0-0.1,0-0.2,0c-0.1,0-0.1,0-0.2-0.1c-0.4-0.1-0.6,0.1-0.7,0.4c-0.1,0.2-0.1,0.5,0,0.7c0.1,0.3,0.3,0.4,0.6,0.4
					c0.1,0,0.2,0,0.4-0.1C417.2,144.2,417.2,144.2,417.3,144.2z"/>
				<path id="XMLID_351_" class="st8" d="M410,144.7c-0.1,0-0.1,0-0.2,0c-0.1,0-0.2,0-0.3,0c0-0.1,0-0.1,0-0.2c0-0.5,0-0.9,0-1.4
					c0-0.1,0-0.2,0-0.3c-0.2-0.1-0.4,0-0.6-0.1c0-0.1,0-0.2,0-0.4c0.2,0,1.4,0,1.7,0c0,0.1,0,0.2,0,0.4c-0.2,0.1-0.4,0-0.6,0.1
					c0,0.3,0,0.6,0,0.9C410,144,410,144.3,410,144.7z"/>
				<path id="XMLID_350_" class="st8" d="M390.5,142.4c0.2,0,0.3,0,0.4,0c0.1,0.1,0.1,0.2,0.1,0.2c0,0.5,0,0.9,0,1.4
					c0,0.1,0,0.2,0,0.3c0.2,0,0.3,0,0.5,0c0.1,0,0.3,0,0.4,0c0.1,0.1,0,0.2,0,0.4c-0.2,0-1.1,0.1-1.4,0c-0.1-0.2,0-0.5,0-0.7
					c0-0.2,0-0.5,0-0.7C390.5,142.9,390.5,142.7,390.5,142.4z"/>
				<path id="XMLID_349_" class="st8" d="M403.1,144.7c-0.2,0-0.3,0-0.5,0c0,0,0-0.1,0-0.1c0-0.7,0-1.3,0-2c0,0,0-0.1,0-0.1
					c0.1,0,0.3,0,0.4,0c0,0.1,0,0.1,0,0.1C403.1,143.2,403.1,143.9,403.1,144.7z"/>
				<path id="XMLID_348_" class="st8" d="M412.9,142.4c0.2,0,0.3,0,0.4,0c0,0.1,0,0.1,0,0.1c0,0.7,0,1.4,0,2.1c-0.2,0.1-0.3,0-0.5,0
					c0,0,0-0.1,0-0.1c0-0.7,0-1.3,0-2C412.9,142.5,412.9,142.4,412.9,142.4z"/>
			</g>
		</g>
		<g id="XMLID_326_">
			<path id="XMLID_343_" class="st8" d="M377,123.9c-0.3-0.1-0.5-0.2-0.8-0.2c-0.8-0.1-1.5-0.1-2.3,0c-0.5,0-1,0.1-1.6,0.1
				c-0.5,0-1,0.1-1.5,0.1c-0.3,0-0.5,0-0.8,0.1c-0.3,0-0.6,0.1-1,0.1c-0.4,0.1-0.8,0.1-1.2,0.1c-0.7,0.1-1.4,0.1-2.1,0.1
				c-0.8,0-1.6,0-2.4-0.2c-0.9-0.2-1.8-0.5-2.6-1c-0.5-0.3-1.1-0.7-1.5-1.2c-0.5-0.5-0.9-1.1-1.2-1.8c-0.2-0.4-0.3-0.9-0.3-1.4
				c0-0.1,0-0.3,0.1-0.4c0.1-0.2,0.2-0.3,0.4-0.3c0.2,0,0.3,0.1,0.5,0.1c0.3,0.2,0.6,0.4,0.8,0.7c0.3,0.3,0.5,0.6,0.8,0.9
				c0.1,0.2,0.3,0.4,0.4,0.5c0.3,0.4,0.8,0.8,1.2,1.1c0.7,0.4,1.5,0.7,2.3,0.8c1.3,0.2,2.5,0.3,3.8,0.2c0.4,0,0.7-0.1,1.1-0.1
				c0.8-0.1,1.5-0.3,2.2-0.4c1.1-0.2,2.2-0.4,3.4-0.6c0.9-0.2,1.7-0.2,2.6-0.3c0.5,0,1,0,1.6-0.1c0.8,0,1.6-0.1,2.3-0.1
				c0.3,0,0.6-0.1,0.9-0.1c0.5-0.1,1.1-0.2,1.6-0.4c1.1-0.4,2.2-0.8,3.2-1.3c2.7-1.2,5.4-2.1,8.1-3.1c0.1,0,0.3-0.1,0.4-0.1
				c0.3-0.1,0.6-0.2,0.9-0.4c0.9-0.5,1.8-0.8,2.8-1c1.1-0.2,2.2-0.3,3.3-0.2c1.6,0.2,3.2,0.5,4.7,1.2c0.8,0.3,1.6,0.7,2.3,1.1
				c0.8,0.4,1.5,0.8,2.3,1.3c0,0,0.1,0,0.1,0c0.2,0.1,0.4,0.2,0.6,0c0.2-0.1,0.4-0.2,0.6-0.3c0.3-0.1,0.6-0.1,1,0
				c0.1,0,0.2,0.1,0.3,0.3c0,0.1,0.1,0.1,0.1,0.1c0.1,0.1,0.1,0.3,0.1,0.4c0,0.2,0,0.3,0,0.5c0,0.2,0.1,0.3,0.2,0.4
				c0.1,0.1,0.2,0.1,0.3,0.2c0,0,0.1-0.1,0.1-0.1c0.1-0.2,0-0.4,0-0.6c0-0.1-0.1-0.3-0.2-0.4c-0.1,0-0.1-0.1-0.2-0.2
				c0-0.1-0.1-0.1,0-0.2c0.2-0.1,0.3,0,0.5,0.1c0.2,0.1,0.4,0.3,0.5,0.6c0.1,0.3,0.1,0.5,0,0.8c0,0.1,0,0.2,0,0.4
				c0,0.2,0,0.3,0.1,0.4c0.1,0.1,0.3,0.3,0.4,0.4c0.2,0.2,0.3,0.3,0.5,0.5c0.2,0.3,0.3,0.6,0.4,1c0,0.4,0.1,0.7,0.1,1.1
				c0,0.6,0.1,1.2,0.1,1.7c0,0.3-0.1,0.5-0.4,0.7c-0.3,0.1-0.6,0.4-0.8,0.6c-0.1,0.1-0.2,0.2-0.3,0.3c-0.1,0.1-0.3,0.2-0.4,0.2
				c-0.2,0.1-0.5,0.1-0.7-0.1c-0.4-0.3-0.9-0.6-1.2-0.9c-0.1-0.1-0.2-0.2-0.4-0.4c-0.2-0.2-0.5-0.4-0.8-0.4c-0.2,0-0.4-0.1-0.6-0.1
				c-0.1,0-0.2,0-0.3,0c0,0-0.1,0-0.1,0.1c0.1,0.1,0.1,0.1,0.2,0.1c0.3,0.1,0.6,0.3,0.8,0.5c0.1,0.1,0.3,0.2,0.4,0.3
				c0.8,0.6,1.2,1.5,1.2,2.5c0,0.2,0,0.4-0.1,0.6c-0.1,0.2-0.2,0.3-0.4,0.3c-0.1,0-0.2,0-0.3,0c-0.2,0-0.4,0.1-0.6,0.2
				c-0.2,0.1-0.3,0.1-0.5,0.1c-0.2,0-0.3,0.1-0.5,0.1c-0.3,0.1-0.5,0-0.7-0.2c-0.1-0.1-0.2-0.2-0.2-0.3c-0.1-0.2-0.2-0.3-0.3-0.5
				c-0.1-0.1-0.1-0.2-0.2-0.3c-0.1,0-0.1,0.1-0.1,0.1c-0.1,0.1-0.2,0.2-0.3,0.3c-0.3,0.3-0.6,0.5-1,0.4c-0.1,0-0.2,0-0.3,0
				c-0.2,0-0.5,0-0.7-0.1c-0.1,0-0.2,0-0.3,0c-0.1,0-0.2-0.1-0.2-0.2c0-0.1-0.1-0.2-0.1-0.3c0-0.2-0.1-0.3-0.3-0.4
				c0,0-0.1,0-0.1-0.1c-0.1-0.1-0.1-0.2-0.1-0.4c0-0.1,0.1-0.2,0.1-0.3c-0.1-0.1-0.2-0.2-0.4-0.2c-0.3-0.1-0.6-0.2-0.8-0.2
				c-0.5-0.1-1-0.2-1.5-0.2c-0.2,0-0.4,0-0.5,0c-0.5,0-1.1-0.1-1.6-0.1c-0.6-0.1-1.2-0.2-1.8-0.4c-0.5-0.1-1.1-0.2-1.6-0.1
				c-0.8,0.1-1.6,0.1-2.4,0.2c-0.7,0-1.3,0.1-2,0.1c-0.9,0-1.7,0-2.6,0.1c-0.3,0-0.7,0-1,0.1c-0.7,0.1-1.4,0.3-2.1,0.6
				c-0.7,0.3-1.3,0.7-1.9,1.2c-0.8,0.7-1.6,1.4-2.3,2.1c-0.4,0.4-0.8,0.9-1.3,1.3c-0.2,0.2-0.5,0.4-0.7,0.6
				c-0.6,0.5-1.2,0.9-1.8,1.2c-1,0.5-2.1,0.9-3.2,1.2c-0.6,0.2-1.1,0.3-1.7,0.5c-0.4,0.1-0.8,0.2-1.1,0.5c-0.3,0.2-0.6,0.4-0.9,0.6
				c-0.9,0.7-1.9,1.5-2.7,2.3c-0.7,0.6-1.3,1.2-2,1.7c-0.5,0.4-0.9,0.9-1.3,1.3c-0.2,0.2-0.3,0.4-0.5,0.5c-0.3,0.4-0.6,0.8-0.9,1.2
				c-0.3,0.3-0.6,0.6-0.9,0.9c-0.2,0.1-0.4,0.2-0.7,0.3c-0.3,0-0.5,0-0.6-0.2c-0.1-0.2-0.3-0.3-0.5-0.4c-0.3-0.1-0.6-0.2-0.8-0.5
				c-0.2-0.3-0.3-0.6-0.2-1c0-0.3,0.1-0.5,0.3-0.8c0.2-0.4,0.4-0.7,0.6-1.1c0.2-0.3,0.5-0.6,0.9-0.7c0.2-0.1,0.4-0.1,0.6-0.2
				c0.5-0.1,0.9-0.4,1.3-0.8c0.5-0.5,0.9-1.1,1.4-1.8c0.2-0.4,0.5-0.7,0.7-1.1c0.1-0.1,0.2-0.3,0.3-0.5c0.2-0.3,0.4-0.7,0.6-1
				c0.1-0.2,0.2-0.3,0.3-0.5c0.2-0.3,0.4-0.5,0.7-0.7c0.3-0.2,0.7-0.4,1-0.7c0.3-0.2,0.7-0.5,1-0.7c1.1-0.9,1.9-2,2.5-3.3
				c0.3-0.7,0.6-1.4,1-2.2c0.2-0.4,0.4-0.8,0.6-1.2c0.2-0.3,0.3-0.6,0.6-0.9c0.2-0.2,0.4-0.4,0.7-0.6C376.9,124.1,377,124,377,123.9
				z M363.2,143c0,0,0,0.1-0.1,0.1c0,0.1-0.1,0.1-0.1,0.1c-0.1,0.1-0.1,0.2,0,0.4c0,0.1,0.1,0.1,0.2,0.1c0.1,0.1,0.3,0.1,0.4,0
				c0.3,0,0.5-0.1,0.8-0.3c0.3-0.2,0.6-0.5,0.9-0.7c0.2-0.3,0.5-0.5,0.7-0.8c0.8-1,1.7-2.1,2.5-3.1c0.5-0.7,1.1-1.3,1.7-1.9
				c0.4-0.3,0.7-0.6,1.2-0.8c1.5-0.8,3-1.6,4.6-2.3c0.1,0,0.2-0.1,0.3-0.1c1.1-0.6,2.3-1.2,3.3-1.9c0.3-0.2,0.5-0.4,0.8-0.6
				c1.1-0.9,2.2-1.8,3.4-2.8c0.5-0.4,1.1-0.8,1.7-1.2c0.3-0.2,0.7-0.4,1.1-0.5c0.5-0.2,1-0.3,1.6-0.4c0.3-0.1,0.7-0.1,1-0.1
				c0.6-0.1,1.3-0.1,1.9-0.1c0.4,0,0.9,0,1.3,0c0.4,0,0.9-0.1,1.3-0.1c0.9,0,1.8-0.1,2.7-0.2c0.6-0.1,1.1-0.2,1.6-0.3
				c0.5-0.2,1.1-0.3,1.6-0.5c0.1,0,0.2-0.1,0.3-0.1c0.1,0,0.1-0.1,0.1-0.2c-0.1,0-0.2-0.1-0.3-0.1c-0.1,0-0.2,0-0.3-0.1
				c-0.1,0-0.3,0-0.4-0.1c-0.3-0.1-0.4-0.3-0.4-0.6c0,0,0,0,0-0.1c0-0.2,0.1-0.5,0.2-0.7c0.1-0.2,0.3-0.4,0.5-0.7
				c0.1-0.1,0.2-0.3,0.3-0.4c0,0,0.1-0.1,0-0.1c-0.1,0-0.2,0.1-0.3,0c0-0.1,0-0.2,0.1-0.3c0.2-0.4,0.4-0.7,0.6-1.1
				c0.3-0.5,0.7-1,1.2-1.3c0.4-0.3,0.8-0.5,1.2-0.6c0,0,0.1,0,0.2,0c-0.1,0.1-0.1,0.2-0.2,0.3c-0.3,0.3-0.5,0.6-0.8,0.9
				c-0.3,0.3-0.5,0.6-0.7,1c-0.1,0.1-0.1,0.2-0.1,0.4c0,0,0,0.1,0,0.1c0.2,0,0.4-0.1,0.5-0.2c0,0,0.1,0,0.1,0
				c-0.1,0.1-0.2,0.2-0.2,0.3c-0.2,0.2-0.4,0.3-0.5,0.5c-0.3,0.3-0.6,0.7-0.7,1.1c-0.1,0.1-0.1,0.3-0.2,0.4c-0.1,0.3,0,0.5,0.3,0.6
				c0.1,0.1,0.3,0.1,0.5,0.2c0.8,0.3,1.7,0.6,2.5,0.9c0.2,0.1,0.5,0.2,0.7,0.2c0.1,0,0.2,0,0.3,0.1c0.3,0.1,0.7,0.2,1,0.3
				c0.2,0,0.3,0.1,0.5,0.1c0.5,0.1,1,0.3,1.6,0.4c0.4,0.1,0.8,0.2,1.1,0.4c0.2,0.1,0.3,0.1,0.5,0.1c0.1,0,0.2,0,0.3,0
				c0.1,0,0.2,0,0.3,0.2c0,0.1,0.1,0.2,0.1,0.3c0.1,0.2,0.2,0.4,0.5,0.4c0.1,0,0.2,0.1,0.2,0.1c0.2,0.1,0.3,0.2,0.4,0.3
				c0.1,0.1,0.1,0.2,0.1,0.3c0,0.1,0.1,0.2,0.1,0.2c0.1,0.2,0.2,0.4,0.3,0.6c0.1,0.2,0.3,0.2,0.4-0.1c0-0.1,0-0.1,0.1-0.2
				c0-0.1,0-0.1,0.1-0.2c0.2,0.1,0.2,0.1,0.2,0.3c0,0,0,0.1,0,0.1c0,0.1,0.1,0.2,0.2,0.2c0.1,0,0.2,0,0.3-0.1
				c0.2-0.1,0.3-0.3,0.3-0.6c0-0.1,0-0.3,0-0.4c0.1,0.1,0.2,0.2,0.2,0.3c0,0.1,0.1,0.2,0.1,0.3c0.1,0.2,0.3,0.2,0.5,0
				c0-0.1,0.1-0.1,0.1-0.2c0-0.1,0-0.3,0-0.4c-0.1-0.5-0.3-1-0.5-1.5c-0.1-0.2-0.2-0.4-0.4-0.5c-0.4-0.4-0.9-0.7-1.4-1.1
				c-0.1-0.1-0.2-0.1-0.2-0.1c-0.6-0.3-1.2-0.7-1.9-0.9c0,0-0.1,0-0.1-0.1c-0.2-0.1-0.5-0.2-0.7-0.2c-0.4-0.1-0.8-0.1-1.1-0.2
				c-0.3,0-0.6-0.1-0.9-0.1c-0.1,0-0.3,0-0.4-0.1c0.1,0,0.2-0.1,0.2-0.1c-0.1,0-0.1-0.1-0.1-0.1c-0.3-0.1-0.6-0.1-0.9-0.1
				c-0.2,0-0.4,0-0.5,0c0,0-0.1,0-0.1-0.1c0.2-0.1,0.4-0.1,0.5-0.1c0.3,0,0.5,0,0.8-0.1c0.1,0,0.1,0,0.2,0c0-0.1-0.1-0.1-0.1-0.1
				c-0.1,0-0.2-0.1-0.3-0.1c-0.1,0-0.2-0.1-0.3-0.1c0,0,0,0-0.1-0.1c0.1,0,0.1,0,0.1,0c0.4,0,0.7,0,1.1,0.1c0.3,0.1,0.4,0,0.6-0.3
				c0-0.1,0.1-0.2,0.1-0.3c0-0.2,0.1-0.4,0.1-0.5c0-0.3,0.1-0.5,0.1-0.8c0,0,0-0.1,0.1-0.2c0,0.1,0.1,0.1,0.1,0.2
				c0,0.2,0.1,0.4,0.1,0.7c0,0.1,0.1,0.2,0.2,0.2c0-0.1,0-0.2,0.1-0.3c0.1-0.3,0.2-0.7,0.5-0.9c0,0,0.1-0.1,0.1-0.1c0,0,0,0.1,0,0.1
				c0,0.1,0,0.1-0.1,0.2c-0.2,0.5-0.3,1.1-0.3,1.6c0,0.4,0.1,0.8,0.4,1.2c0.1,0.1,0.2,0.3,0.4,0.3c0,0,0.1,0,0.1,0
				c0-0.2-0.1-0.3-0.1-0.5c0-0.1,0-0.3,0-0.4c0-0.2,0.1-0.3,0.2-0.4c0,0,0.1,0.1,0.1,0.1c0,0.1,0,0.2,0,0.3c0,0.1,0,0.3,0,0.4
				c0.1,0.3,0.4,0.6,0.7,0.6c0.2,0,0.3,0,0.4-0.2c0.1-0.1,0.1-0.1,0.2-0.2c0.1-0.1,0.2-0.2,0.3-0.3c0.1-0.1,0.2-0.1,0.4-0.2
				c0.2-0.1,0.4-0.3,0.5-0.6c0,0,0-0.1,0.1-0.2c0,0.2-0.1,0.4-0.2,0.5c-0.1,0.1-0.1,0.3-0.2,0.4c-0.1,0.3-0.1,0.5,0.1,0.8
				c0.1,0.1,0.3,0.2,0.4,0.3c0.2,0.2,0.5,0.3,0.7,0.5c0.4,0.3,0.8,0.6,1.2,1c0.2,0.3,0.5,0.5,0.7,0.7c0.2,0.1,0.4,0.2,0.6,0.2
				c0.1,0,0.2,0,0.2-0.1c0-0.1,0-0.2-0.1-0.3c0,0-0.1-0.1-0.1-0.1c-0.1-0.1-0.2-0.1-0.3-0.1c-0.2-0.1-0.4-0.1-0.5-0.2
				c-0.6-0.2-0.8-0.8-0.6-1.4c0.2-0.1,0.4-0.1,0.6,0.1c0.1,0.1,0.2,0.2,0.2,0.3c0.1,0.2,0.2,0.3,0.3,0.5c0.1,0.2,0.3,0.4,0.4,0.5
				c0.1,0.1,0.2,0.2,0.3,0.2c0.3,0.1,0.5-0.1,0.5-0.4c0,0,0-0.1,0-0.1c0-0.1,0-0.2,0-0.3c0-0.1,0-0.2,0-0.2c0.1,0,0.1,0,0.1,0.1
				c0.1,0.2,0.3,0.3,0.6,0.4c0.2,0,0.3-0.1,0.3-0.2c0-0.1,0-0.2,0-0.3c0-0.3,0-0.5-0.1-0.8c-0.1-0.6-0.2-1.2-0.3-1.8
				c-0.1-0.4-0.3-0.7-0.5-1.1c-0.1-0.2-0.3-0.3-0.4-0.5c-0.3-0.3-0.6-0.6-0.9-0.8c-0.1-0.1-0.2-0.2-0.3-0.2c0,0,0,0.1-0.1,0.1
				c-0.1,0.1-0.3,0.1-0.3-0.1c-0.1-0.1-0.1-0.3-0.1-0.4c0-0.2,0-0.4,0-0.7c0-0.1,0-0.2,0-0.4c-0.1-0.3-0.3-0.4-0.6-0.4
				c-0.1,0-0.2,0.1-0.3,0.2c-0.1,0.1-0.3,0.3-0.4,0.4c-0.1,0.1-0.2,0.3-0.3,0.4c-0.2,0.2-0.4,0.4-0.7,0.4c-0.2,0-0.3,0-0.5-0.1
				c0-0.1,0-0.2,0-0.3c0.1-0.3,0.4-0.5,0.6-0.7c0-0.1-0.1-0.1-0.2-0.2c-0.2-0.1-0.4-0.2-0.5-0.3c-0.4-0.2-0.7-0.4-1.1-0.6
				c-0.3-0.2-0.6-0.3-0.9-0.4c-0.2-0.1-0.5-0.2-0.7-0.2c-0.3-0.1-0.6-0.1-0.9,0c-0.2,0-0.3,0-0.4-0.2c-0.1-0.2-0.2-0.3-0.3-0.4
				c-0.2-0.1-0.4-0.3-0.6-0.4c-0.3-0.2-0.7-0.3-1.1-0.4c-0.6-0.2-1.2-0.3-1.9-0.4c-0.8-0.1-1.6-0.1-2.4,0c-0.4,0.1-0.8,0.1-1.2,0.2
				c-0.5,0.1-1,0.2-1.5,0.4c-0.4,0.2-0.7,0.3-1,0.5c-0.4,0.2-0.8,0.4-1.1,0.7c-0.1,0.1-0.1,0.1-0.2,0.1c-0.4,0.2-0.7,0.5-1,0.7
				c-0.1,0.1-0.2,0.2-0.4,0.3c0,0-0.1,0-0.1,0c0-0.2,0.1-0.3,0.2-0.4c0.1-0.1,0.3-0.3,0.4-0.4c0.1-0.1,0.2-0.2,0.2-0.3
				c-0.1,0-0.1,0-0.2,0c-0.2,0.1-0.3,0.1-0.5,0.2c-0.6,0.3-1.2,0.5-1.9,0.7c-0.1,0-0.2,0.1-0.3,0.1c-0.6,0.2-1.1,0.4-1.7,0.6
				c-1.1,0.4-2.1,0.8-3.1,1.3c-1.1,0.5-2.1,0.9-3.2,1.3c-0.8,0.3-1.7,0.5-2.6,0.6c-0.8,0.1-1.6,0.2-2.4,0.2c-0.7,0-1.4,0-2.1,0
				c-0.6,0-1.3,0-1.9,0.1c-1.1,0.1-2.1,0.3-3.2,0.5c-1,0.2-2.1,0.4-3.2,0.6c-0.7,0.1-1.5,0.2-2.2,0.2c-0.3,0-0.5,0-0.8,0
				c-0.6,0-1.3-0.1-1.9-0.3c-0.9-0.2-1.7-0.4-2.5-0.8c-0.2-0.1-0.4-0.2-0.6-0.4c-0.1-0.1-0.2-0.2-0.4-0.2c0,0-0.1,0-0.1,0
				c0,0,0,0.1,0,0.1c0,0,0,0.1,0.1,0.1c0.2,0.4,0.5,0.8,0.9,1.2c0.5,0.4,1,0.7,1.5,0.9c0.9,0.4,1.8,0.5,2.8,0.5c0.4,0,0.9,0,1.3,0
				c0.1,0,0.2,0,0.3,0c0.6,0,1.2-0.1,1.8-0.1c0.9-0.1,1.8-0.2,2.7-0.2c0.6,0,1.3-0.1,1.9-0.1c0.3,0,0.7,0,1-0.1c0.5,0,1-0.1,1.5,0
				c0.3,0.1,0.6,0.1,0.9,0.2c0.2,0.1,0.4,0.1,0.6,0c0.1-0.1,0.3-0.1,0.4-0.1c0,0,0.1,0,0.1,0c0,0.1-0.1,0.1-0.1,0.1
				c-0.1,0.1-0.2,0.2-0.3,0.2c-0.7,0.4-1.3,1-1.8,1.7c-0.3,0.4-0.6,0.9-0.8,1.4c-0.2,0.5-0.5,1.1-0.7,1.6c-0.2,0.5-0.5,1-0.8,1.4
				c-0.3,0.4-0.6,0.9-0.9,1.3c-0.2,0.3-0.4,0.6-0.7,0.8c-0.3,0.3-0.6,0.6-0.9,0.8c-0.1,0.1-0.3,0.3-0.4,0.4c0,0,0,0.1,0,0.1
				c0.1,0,0.2,0,0.2,0c0.3-0.1,0.6-0.1,0.8-0.2c0.4-0.1,0.6-0.4,0.9-0.7c0.1-0.2,0.2-0.3,0.3-0.5c0.1-0.1,0.1-0.2,0.2-0.2
				c0,0,0,0,0,0.1c-0.2,0.7-0.6,1.3-1.3,1.6c-0.3,0.1-0.6,0.2-0.9,0.4c-0.5,0.2-0.9,0.4-1.4,0.7c-0.6,0.4-1.2,0.8-1.6,1.4
				c0,0.1-0.1,0.1-0.1,0.2c-0.4,0.7-0.9,1.3-1.3,2c-0.2,0.2-0.3,0.5-0.4,0.7c-0.4,0.7-1,1.2-1.8,1.4c-0.2,0.1-0.5,0.2-0.7,0.2
				c-0.2,0.1-0.4,0.1-0.6,0.3c-0.1,0.1-0.2,0.2-0.3,0.3c-0.1,0.2,0,0.4,0.3,0.5c0.1,0,0.2,0,0.3,0c-0.1,0.1-0.1,0.1-0.1,0.2
				c-0.1,0.1-0.2,0.1-0.4,0.2c-0.1,0-0.3,0.1-0.4,0.1c-0.3,0.1-0.4,0.3-0.3,0.7c0,0.1,0,0.1,0.1,0.2c0.1,0.2,0.2,0.2,0.4,0.2
				C363,143,363.1,142.9,363.2,143z"/>
			<path id="XMLID_334_" class="st16" d="M363.2,143c-0.1,0-0.2,0-0.3,0c-0.2,0-0.3,0-0.4-0.2c0,0,0-0.1-0.1-0.2
				c-0.1-0.4,0-0.6,0.3-0.7c0.1,0,0.3-0.1,0.4-0.1c0.1,0,0.2-0.1,0.4-0.2c0.1,0,0.1-0.1,0.1-0.2c-0.1,0-0.2,0-0.3,0
				c-0.2,0-0.4-0.2-0.3-0.5c0.1-0.1,0.1-0.2,0.3-0.3c0.2-0.1,0.4-0.2,0.6-0.3c0.2-0.1,0.5-0.2,0.7-0.2c0.8-0.2,1.4-0.7,1.8-1.4
				c0.1-0.2,0.3-0.5,0.4-0.7c0.4-0.7,0.9-1.3,1.3-2c0-0.1,0.1-0.1,0.1-0.2c0.4-0.6,0.9-1.1,1.6-1.4c0.4-0.3,0.9-0.5,1.4-0.7
				c0.3-0.1,0.6-0.2,0.9-0.4c0.7-0.3,1.1-0.9,1.3-1.6c0,0,0,0,0-0.1c-0.1,0-0.1,0.1-0.2,0.2c-0.1,0.2-0.2,0.3-0.3,0.5
				c-0.2,0.3-0.5,0.6-0.9,0.7c-0.3,0.1-0.5,0.2-0.8,0.2c-0.1,0-0.1,0-0.2,0c0-0.1,0-0.1,0-0.1c0.1-0.1,0.3-0.3,0.4-0.4
				c0.3-0.3,0.6-0.6,0.9-0.8c0.3-0.2,0.5-0.5,0.7-0.8c0.3-0.4,0.6-0.9,0.9-1.3c0.3-0.4,0.6-0.9,0.8-1.4c0.2-0.5,0.5-1.1,0.7-1.6
				c0.2-0.5,0.5-0.9,0.8-1.4c0.5-0.7,1.1-1.2,1.8-1.7c0.1-0.1,0.2-0.1,0.3-0.2c0,0,0.1-0.1,0.1-0.1c-0.1,0-0.1,0-0.1,0
				c-0.1,0-0.3,0-0.4,0.1c-0.2,0.1-0.4,0.1-0.6,0c-0.3-0.1-0.6-0.2-0.9-0.2c-0.5-0.1-1-0.1-1.5,0c-0.3,0-0.7,0.1-1,0.1
				c-0.6,0-1.3,0.1-1.9,0.1c-0.9,0-1.8,0.2-2.7,0.2c-0.6,0.1-1.2,0.1-1.8,0.1c-0.1,0-0.2,0-0.3,0c-0.4,0-0.9,0-1.3,0
				c-1,0-1.9-0.2-2.8-0.5c-0.6-0.2-1.1-0.5-1.5-0.9c-0.4-0.3-0.7-0.7-0.9-1.2c0,0,0-0.1-0.1-0.1c0,0,0,0,0-0.1c0,0,0.1,0,0.1,0
				c0.1,0.1,0.3,0.2,0.4,0.2c0.2,0.2,0.4,0.3,0.6,0.4c0.8,0.4,1.6,0.7,2.5,0.8c0.6,0.1,1.3,0.2,1.9,0.3c0.3,0,0.5,0,0.8,0
				c0.7,0,1.5-0.1,2.2-0.2c1.1-0.1,2.1-0.3,3.2-0.6c1.1-0.2,2.1-0.4,3.2-0.5c0.6-0.1,1.3-0.1,1.9-0.1c0.7,0,1.4,0,2.1,0
				c0.8,0,1.6-0.1,2.4-0.2c0.9-0.1,1.7-0.4,2.6-0.6c1.1-0.4,2.2-0.8,3.2-1.3c1-0.5,2.1-0.9,3.1-1.3c0.6-0.2,1.1-0.4,1.7-0.6
				c0.1,0,0.2-0.1,0.3-0.1c0.6-0.2,1.3-0.4,1.9-0.7c0.2-0.1,0.3-0.1,0.5-0.2c0,0,0.1,0,0.2,0c0,0.2-0.1,0.3-0.2,0.3
				c-0.1,0.1-0.3,0.3-0.4,0.4c-0.1,0.1-0.2,0.2-0.2,0.4c0,0.1,0.1,0,0.1,0c0.1-0.1,0.2-0.2,0.4-0.3c0.3-0.3,0.6-0.5,1-0.7
				c0.1,0,0.1-0.1,0.2-0.1c0.3-0.3,0.7-0.5,1.1-0.7c0.3-0.2,0.7-0.3,1-0.5c0.5-0.2,1-0.3,1.5-0.4c0.4-0.1,0.8-0.1,1.2-0.2
				c0.8-0.1,1.6,0,2.4,0c0.6,0.1,1.3,0.2,1.9,0.4c0.4,0.1,0.8,0.2,1.1,0.4c0.2,0.1,0.4,0.2,0.6,0.4c0.1,0.1,0.3,0.2,0.3,0.4
				c0.1,0.2,0.2,0.2,0.4,0.2c0.3,0,0.6,0,0.9,0c0.2,0.1,0.5,0.1,0.7,0.2c0.3,0.1,0.6,0.3,0.9,0.4c0.4,0.2,0.7,0.4,1.1,0.6
				c0.2,0.1,0.4,0.2,0.5,0.3c0.1,0,0.2,0.1,0.2,0.2c-0.2,0.2-0.5,0.4-0.6,0.7c0,0.1-0.1,0.2,0,0.3c0.1,0.1,0.3,0.1,0.5,0.1
				c0.3-0.1,0.5-0.2,0.7-0.4c0.1-0.1,0.2-0.3,0.3-0.4c0.1-0.1,0.3-0.3,0.4-0.4c0.1-0.1,0.2-0.1,0.3-0.2c0.3-0.1,0.5,0.1,0.6,0.4
				c0,0.1,0,0.2,0,0.4c0,0.2,0,0.4,0,0.7c0,0.1,0,0.3,0.1,0.4c0.1,0.1,0.2,0.2,0.3,0.1c0,0,0.1-0.1,0.1-0.1c0.1,0.1,0.2,0.1,0.3,0.2
				c0.3,0.3,0.6,0.6,0.9,0.8c0.2,0.2,0.3,0.3,0.4,0.5c0.3,0.3,0.4,0.7,0.5,1.1c0.1,0.6,0.2,1.2,0.3,1.8c0,0.3,0,0.5,0.1,0.8
				c0,0.1,0,0.2,0,0.3c0,0.2-0.1,0.3-0.3,0.2c-0.2-0.1-0.4-0.2-0.6-0.4c0-0.1-0.1-0.1-0.1-0.1c-0.1,0.1-0.1,0.2,0,0.2
				c0,0.1,0,0.2,0,0.3c0,0,0,0.1,0,0.1c0,0.3-0.2,0.5-0.5,0.4c-0.1-0.1-0.2-0.1-0.3-0.2c-0.2-0.2-0.3-0.3-0.4-0.5
				c-0.1-0.2-0.2-0.3-0.3-0.5c-0.1-0.1-0.1-0.2-0.2-0.3c-0.2-0.2-0.4-0.2-0.6-0.1c-0.2,0.6,0.1,1.1,0.6,1.4c0.2,0.1,0.4,0.1,0.5,0.2
				c0.1,0,0.2,0.1,0.3,0.1c0,0,0.1,0.1,0.1,0.1c0.1,0.1,0.1,0.2,0.1,0.3c0,0.1-0.1,0.1-0.2,0.1c-0.2,0-0.5-0.1-0.6-0.2
				c-0.3-0.2-0.5-0.4-0.7-0.7c-0.4-0.4-0.7-0.7-1.2-1c-0.2-0.2-0.5-0.3-0.7-0.5c-0.1-0.1-0.3-0.2-0.4-0.3c-0.2-0.2-0.3-0.5-0.1-0.8
				c0.1-0.1,0.1-0.3,0.2-0.4c0.1-0.1,0.2-0.3,0.2-0.5c-0.1,0.1-0.1,0.1-0.1,0.2c-0.1,0.3-0.3,0.4-0.5,0.6c-0.1,0.1-0.2,0.1-0.4,0.2
				c-0.1,0.1-0.2,0.2-0.3,0.3c0,0.1-0.1,0.2-0.2,0.2c-0.1,0.1-0.2,0.2-0.4,0.2c-0.3,0-0.7-0.3-0.7-0.6c0-0.1,0-0.3,0-0.4
				c0-0.1,0-0.2,0-0.3c0,0,0-0.1-0.1-0.1c-0.1,0.1-0.2,0.2-0.2,0.4c0,0.1,0,0.3,0,0.4c0,0.1,0.1,0.3,0.1,0.5c-0.1,0-0.1,0-0.1,0
				c-0.2-0.1-0.3-0.2-0.4-0.3c-0.3-0.4-0.4-0.8-0.4-1.2c0-0.6,0.1-1.1,0.3-1.6c0-0.1,0.1-0.1,0.1-0.2c0,0,0-0.1,0-0.1
				c-0.1,0-0.1,0-0.1,0.1c-0.2,0.3-0.4,0.6-0.5,0.9c0,0.1-0.1,0.2-0.1,0.3c-0.1,0-0.2-0.1-0.2-0.2c0-0.2-0.1-0.4-0.1-0.7
				c0-0.1,0-0.1-0.1-0.2c0,0.1-0.1,0.1-0.1,0.2c0,0.3-0.1,0.5-0.1,0.8c0,0.2-0.1,0.4-0.1,0.5c0,0.1-0.1,0.2-0.1,0.3
				c-0.2,0.3-0.2,0.3-0.6,0.3c-0.4-0.1-0.7-0.1-1.1-0.1c0,0-0.1,0-0.1,0c0,0,0.1,0.1,0.1,0.1c0.1,0,0.2,0.1,0.3,0.1
				c0.1,0,0.2,0.1,0.3,0.1c0,0,0,0.1,0.1,0.1c-0.1,0-0.1,0-0.2,0c-0.3,0-0.5,0-0.8,0.1c-0.2,0-0.4,0-0.5,0.1c0.1,0,0.1,0.1,0.1,0.1
				c0.2,0,0.4,0,0.5,0c0.3,0,0.6,0,0.9,0.1c0,0,0.1,0,0.1,0.1c-0.1,0-0.2,0.1-0.2,0.1c0.1,0.1,0.3,0.1,0.4,0.1
				c0.3,0,0.6,0.1,0.9,0.1c0.4,0,0.8,0.1,1.1,0.2c0.2,0.1,0.5,0.1,0.7,0.2c0,0,0.1,0,0.1,0.1c0.7,0.2,1.3,0.6,1.9,0.9
				c0.1,0,0.2,0.1,0.2,0.1c0.5,0.3,0.9,0.7,1.4,1.1c0.2,0.1,0.3,0.3,0.4,0.5c0.2,0.5,0.5,1,0.5,1.5c0,0.1,0,0.3,0,0.4
				c0,0.1,0,0.1-0.1,0.2c-0.1,0.2-0.4,0.2-0.5,0c-0.1-0.1-0.1-0.2-0.1-0.3c0-0.1-0.1-0.2-0.2-0.3c0,0.1,0,0.3,0,0.4
				c0,0.2-0.1,0.4-0.3,0.6c-0.1,0.1-0.2,0.1-0.3,0.1c-0.1,0-0.2-0.1-0.2-0.2c0,0,0-0.1,0-0.1c0-0.1,0-0.1-0.2-0.3
				c0,0.1,0,0.1-0.1,0.2c0,0.1,0,0.1-0.1,0.2c-0.1,0.2-0.3,0.2-0.4,0.1c-0.1-0.2-0.2-0.4-0.3-0.6c0-0.1-0.1-0.2-0.1-0.2
				c0-0.1-0.1-0.2-0.1-0.3c-0.1-0.2-0.2-0.3-0.4-0.3c-0.1,0-0.2-0.1-0.2-0.1c-0.2-0.1-0.4-0.2-0.5-0.4c0-0.1-0.1-0.2-0.1-0.3
				c-0.1-0.1-0.2-0.2-0.3-0.2c-0.1,0-0.2,0-0.3,0c-0.2,0-0.3,0-0.5-0.1c-0.4-0.2-0.7-0.3-1.1-0.4c-0.5-0.1-1-0.3-1.6-0.4
				c-0.2,0-0.3-0.1-0.5-0.1c-0.3-0.1-0.7-0.2-1-0.3c-0.1,0-0.2-0.1-0.3-0.1c-0.2,0-0.5-0.1-0.7-0.2c-0.8-0.3-1.7-0.6-2.5-0.9
				c-0.2-0.1-0.3-0.1-0.5-0.2c-0.2-0.1-0.3-0.3-0.3-0.6c0-0.2,0.1-0.3,0.2-0.4c0.2-0.4,0.4-0.7,0.7-1.1c0.2-0.2,0.4-0.3,0.5-0.5
				c0.1-0.1,0.2-0.1,0.2-0.3c-0.1,0-0.1,0-0.1,0c-0.2,0.1-0.3,0.2-0.5,0.2c0-0.1,0-0.1,0-0.1c0-0.1,0.1-0.3,0.1-0.4
				c0.2-0.4,0.4-0.7,0.7-1c0.3-0.3,0.5-0.6,0.8-0.9c0.1-0.1,0.1-0.2,0.2-0.3c-0.1,0-0.1,0-0.2,0c-0.4,0.1-0.9,0.3-1.2,0.6
				c-0.5,0.4-0.9,0.8-1.2,1.3c-0.2,0.3-0.4,0.7-0.6,1.1c0,0.1-0.1,0.2-0.1,0.3c0.1,0.1,0.2,0,0.3,0c0.1,0,0,0.1,0,0.1
				c-0.1,0.1-0.2,0.3-0.3,0.4c-0.2,0.2-0.3,0.4-0.5,0.7c-0.1,0.2-0.2,0.4-0.2,0.7c0,0,0,0,0,0.1c0,0.3,0.1,0.5,0.4,0.6
				c0.1,0,0.3,0.1,0.4,0.1c0.1,0,0.2,0,0.3,0.1c0.1,0,0.2,0.1,0.3,0.1c0,0.1,0,0.2-0.1,0.2c-0.1,0-0.2,0.1-0.3,0.1
				c-0.5,0.2-1.1,0.3-1.6,0.5c-0.5,0.2-1.1,0.3-1.6,0.3c-0.9,0.1-1.8,0.1-2.7,0.2c-0.4,0-0.9,0.1-1.3,0.1c-0.4,0-0.9,0-1.3,0
				c-0.6,0-1.3,0.1-1.9,0.1c-0.3,0-0.7,0.1-1,0.1c-0.5,0.1-1,0.2-1.6,0.4c-0.4,0.1-0.7,0.3-1.1,0.5c-0.6,0.4-1.2,0.8-1.7,1.2
				c-1.1,0.9-2.2,1.9-3.4,2.8c-0.3,0.2-0.5,0.4-0.8,0.6c-1.1,0.7-2.2,1.3-3.3,1.9c-0.1,0-0.2,0.1-0.3,0.1c-1.6,0.7-3.1,1.5-4.6,2.3
				c-0.4,0.2-0.8,0.5-1.2,0.8c-0.6,0.6-1.2,1.2-1.7,1.9c-0.8,1-1.7,2.1-2.5,3.1c-0.2,0.3-0.5,0.5-0.7,0.8c-0.3,0.3-0.6,0.5-0.9,0.7
				c-0.2,0.2-0.5,0.2-0.8,0.3c-0.1,0-0.3,0-0.4,0c-0.1,0-0.2-0.1-0.2-0.1c-0.1-0.2-0.1-0.3,0-0.4c0,0,0.1-0.1,0.1-0.1
				C363.2,143.1,363.2,143,363.2,143z M390.1,125.4c0.2,0,0.3,0,0.5,0c0.5-0.1,0.9-0.2,1.4-0.3c0.6-0.1,1.2-0.2,1.8-0.3
				c0.6-0.1,1.3-0.1,1.9-0.2c0.4-0.1,0.7-0.2,1.1-0.3c0.5-0.2,0.8-0.6,1-1c0.2-0.4,0.3-0.9,0.5-1.3c0,0,0-0.1,0-0.2
				c-0.1,0-0.1,0-0.2,0.1c-0.1,0.1-0.3,0.2-0.4,0.3c-0.2,0.1-0.4,0.3-0.5,0.4c-0.6,0.4-1.2,0.7-1.8,0.9c-0.9,0.3-1.9,0.6-2.8,0.9
				c-0.6,0.2-1.2,0.4-1.8,0.7c-0.2,0.1-0.4,0.2-0.6,0.3C390.1,125.3,390.1,125.3,390.1,125.4z M387.8,119.7c-0.2,0-0.3,0.1-0.4,0.1
				c-0.4,0.2-0.7,0.3-1.1,0.5c-0.4,0.2-0.9,0.4-1.3,0.5c-0.2,0-0.3,0.1-0.5,0.2c-0.1,0-0.2,0.1-0.3,0.1c-0.2,0.1-0.3,0.3-0.3,0.6
				c0,0.1,0,0.2,0.1,0.3c0.1,0.2,0.1,0.4,0,0.6c-0.1,0.2-0.1,0.3-0.2,0.5c-0.1,0.1-0.1,0.2-0.2,0.4c0,0.1-0.1,0.2-0.1,0.3
				c-0.1,0.2,0.1,0.4,0.3,0.3c0,0,0.1,0,0.1,0c0.2-0.1,0.3-0.2,0.4-0.3c0.1-0.2,0.3-0.5,0.4-0.7c0.4-0.7,0.9-1.4,1.5-1.9
				c0.1-0.1,0.3-0.2,0.4-0.4c0.3-0.2,0.6-0.4,0.8-0.7C387.7,119.9,387.8,119.9,387.8,119.7z M382.6,125.3c-0.3,0-0.5,0.1-0.7,0.3
				c-0.2,0.2-0.4,0.4-0.5,0.7c-0.2,0.3-0.3,0.7-0.5,1c-0.1,0.3-0.2,0.6-0.3,0.9c-0.2,0.4-0.4,0.9-0.7,1.3c-0.3,0.4-0.6,0.8-0.8,1.1
				c-0.1,0.1-0.1,0.2-0.2,0.3c0,0,0,0.1,0,0.1c0,0,0.1,0,0.1-0.1c0.1-0.1,0.3-0.2,0.4-0.4c1-0.9,1.8-1.9,2.5-3
				c0.1-0.2,0.2-0.3,0.3-0.5c0.2-0.4,0.3-0.7,0.5-1.1C382.8,125.7,382.8,125.5,382.6,125.3z M374.5,130.1c-0.1,0.1-0.1,0.1-0.2,0.2
				c0.1,0.2,0.3,0.2,0.4,0.1c0.3-0.2,0.6-0.3,1-0.5c0.9-0.4,1.7-1.1,2.4-1.7c0.1-0.1,0.2-0.2,0.3-0.4c0,0,0-0.1,0-0.1
				c-0.1,0-0.2,0-0.3,0.1c-0.3,0.1-0.5,0.3-0.8,0.4c-0.3,0.1-0.5,0.2-0.8,0.1c-0.1,0-0.3-0.1-0.4-0.1c-0.3-0.1-0.6,0-0.9,0.3
				c-0.1,0.1-0.2,0.2-0.3,0.3c-0.1,0.2-0.3,0.4-0.4,0.7C374.4,129.7,374.4,129.7,374.5,130.1z M402.1,118.3
				C402,118.3,402,118.2,402.1,118.3c-0.2-0.2-0.4-0.2-0.6-0.2c-0.4,0-0.8,0.1-1.1,0.2c-0.2,0.1-0.4,0.2-0.6,0.4
				c-0.3,0.3-0.5,0.6-0.6,1c-0.1,0.2-0.1,0.4-0.1,0.7c0,0,0,0.1,0,0.2c0.1-0.1,0.1-0.1,0.1-0.1c0.1-0.2,0.2-0.3,0.3-0.5
				c0.1-0.1,0.2-0.2,0.3-0.3c0.3-0.2,0.5-0.4,0.8-0.6c0.2-0.2,0.5-0.3,0.8-0.4c0.1,0,0.3-0.1,0.4-0.1
				C401.9,118.4,402,118.4,402.1,118.3z M415.4,124.2c0.2,0,0.4,0,0.5-0.2c0.1-0.1,0.1-0.2,0.1-0.3c0.1-0.3,0.1-0.6,0-0.8
				c-0.1-0.6-0.4-0.9-1-1.1c0,0-0.1,0-0.1,0c0,0.1,0,0.2,0.1,0.3c0,0.1,0.1,0.2,0.1,0.4c0.1,0.3,0.2,0.6,0.5,0.8
				c0.1,0.1,0.2,0.3,0.2,0.5c0,0.1,0,0.2-0.2,0.3C415.5,124,415.5,124.1,415.4,124.2z M413.7,118.2c-0.3,0-0.4,0.2-0.6,0.3
				c-0.2,0.2-0.4,0.5-0.6,0.7c0,0,0,0,0,0c0,0.1,0.1,0.1,0.2,0.1c0.2,0,0.4,0,0.6,0c0,0,0.1,0,0.1,0c0.1-0.1,0.1-0.2,0.1-0.3
				c0-0.2,0-0.4,0.2-0.6C413.7,118.4,413.7,118.3,413.7,118.2z"/>
			<path id="XMLID_333_" class="st8" d="M390.1,125.4c0-0.1,0-0.1,0.1-0.1c0.2-0.1,0.4-0.2,0.6-0.3c0.6-0.3,1.2-0.5,1.8-0.7
				c0.9-0.3,1.9-0.6,2.8-0.9c0.7-0.2,1.3-0.5,1.8-0.9c0.2-0.1,0.4-0.3,0.5-0.4c0.1-0.1,0.3-0.2,0.4-0.3c0,0,0.1,0,0.2-0.1
				c0,0.1,0,0.1,0,0.2c-0.2,0.4-0.3,0.9-0.5,1.3c-0.2,0.5-0.5,0.8-1,1c-0.4,0.2-0.7,0.3-1.1,0.3c-0.6,0.1-1.3,0.2-1.9,0.2
				c-0.6,0.1-1.2,0.1-1.8,0.3c-0.5,0.1-0.9,0.2-1.4,0.3C390.5,125.4,390.3,125.4,390.1,125.4z"/>
			<path id="XMLID_332_" class="st8" d="M387.8,119.7c0,0.1-0.2,0.2-0.3,0.3c-0.3,0.2-0.6,0.4-0.8,0.7c-0.1,0.1-0.3,0.2-0.4,0.4
				c-0.6,0.5-1.1,1.2-1.5,1.9c-0.1,0.3-0.3,0.5-0.4,0.7c-0.1,0.2-0.2,0.3-0.4,0.3c0,0-0.1,0-0.1,0c-0.2,0.1-0.4,0-0.3-0.3
				c0-0.1,0.1-0.2,0.1-0.3c0.1-0.1,0.1-0.2,0.2-0.4c0.1-0.2,0.1-0.3,0.2-0.5c0.1-0.2,0.1-0.4,0-0.6c0-0.1,0-0.2-0.1-0.3
				c0-0.2,0-0.4,0.3-0.6c0.1-0.1,0.2-0.1,0.3-0.1c0.2-0.1,0.3-0.1,0.5-0.2c0.5-0.1,0.9-0.3,1.3-0.5c0.4-0.2,0.7-0.3,1.1-0.5
				C387.5,119.8,387.7,119.7,387.8,119.7z"/>
			<path id="XMLID_331_" class="st8" d="M382.6,125.3c0.2,0.2,0.2,0.5,0.1,0.7c-0.2,0.4-0.3,0.7-0.5,1.1c-0.1,0.2-0.2,0.3-0.3,0.5
				c-0.7,1.1-1.5,2.1-2.5,3c-0.1,0.1-0.3,0.2-0.4,0.4c0,0-0.1,0.1-0.1,0.1c-0.1,0,0-0.1,0-0.1c0.1-0.1,0.1-0.2,0.2-0.3
				c0.3-0.4,0.6-0.8,0.8-1.1c0.3-0.4,0.5-0.8,0.7-1.3c0.1-0.3,0.2-0.6,0.3-0.9c0.1-0.3,0.3-0.7,0.5-1c0.1-0.2,0.3-0.5,0.5-0.7
				C382.1,125.4,382.3,125.3,382.6,125.3z"/>
			<path id="XMLID_330_" class="st8" d="M374.5,130.1c0-0.4,0-0.4,0.2-0.7c0.1-0.2,0.2-0.4,0.4-0.7c0.1-0.1,0.2-0.2,0.3-0.3
				c0.2-0.3,0.5-0.4,0.9-0.3c0.1,0,0.3,0.1,0.4,0.1c0.3,0.1,0.6,0,0.8-0.1c0.3-0.1,0.5-0.3,0.8-0.4c0.1,0,0.1-0.1,0.3-0.1
				c0,0.1,0,0.1,0,0.1c-0.1,0.1-0.2,0.3-0.3,0.4c-0.7,0.7-1.4,1.3-2.4,1.7c-0.3,0.2-0.7,0.3-1,0.5c-0.2,0.1-0.3,0.1-0.4-0.1
				C374.4,130.2,374.4,130.2,374.5,130.1z"/>
			<path id="XMLID_329_" class="st8" d="M402.1,118.3c-0.1,0.1-0.2,0.1-0.3,0.2c-0.1,0-0.3,0.1-0.4,0.1c-0.3,0.1-0.5,0.2-0.8,0.4
				c-0.3,0.2-0.5,0.4-0.8,0.6c-0.1,0.1-0.2,0.2-0.3,0.3c-0.1,0.2-0.2,0.3-0.3,0.5c0,0-0.1,0.1-0.1,0.1c0-0.1,0-0.1,0-0.2
				c0-0.2,0-0.4,0.1-0.7c0.1-0.4,0.3-0.7,0.6-1c0.2-0.2,0.4-0.3,0.6-0.4c0.4-0.2,0.7-0.2,1.1-0.2
				C401.7,118.1,401.8,118.1,402.1,118.3C402,118.2,402,118.3,402.1,118.3z"/>
			<path id="XMLID_328_" class="st8" d="M415.4,124.2c0-0.1,0.1-0.2,0.2-0.2c0.1-0.1,0.2-0.2,0.2-0.3c0-0.2,0-0.4-0.2-0.5
				c-0.2-0.2-0.4-0.5-0.5-0.8c0-0.1-0.1-0.2-0.1-0.4c0-0.1-0.1-0.2-0.1-0.3c0,0,0.1,0,0.1,0c0.6,0.1,0.9,0.5,1,1.1
				c0,0.3,0.1,0.6,0,0.8c0,0.1-0.1,0.2-0.1,0.3C415.8,124.1,415.7,124.2,415.4,124.2z"/>
			<path id="XMLID_327_" class="st8" d="M413.7,118.2c0,0.1,0,0.2-0.1,0.2c-0.1,0.2-0.1,0.4-0.2,0.6c0,0.1,0,0.2-0.1,0.3
				c0,0-0.1,0-0.1,0c-0.2,0-0.4,0-0.6,0c-0.1,0-0.1,0-0.2-0.1c0,0,0,0,0,0c0.2-0.2,0.4-0.4,0.6-0.7
				C413.3,118.4,413.4,118.3,413.7,118.2z"/>
		</g>
	</g>
</g>
</svg>
